<svg width="20" height="20" viewBox="0 0 20 20" fill="none" xmlns="http://www.w3.org/2000/svg">
<path d="M4.99199 11.364C4.84399 11.36 4.69599 11.41 4.58599 11.518C4.35999 11.75 4.13799 11.99 3.91399 12.226C3.79599 12.344 3.72199 12.52 3.71999 12.686C3.71399 13.028 4.00199 13.292 4.33799 13.302C4.47199 13.306 4.60399 13.266 4.70999 13.178L4.86599 13.02L5.41799 12.44C5.53599 12.322 5.60999 12.146 5.61199 11.98C5.61799 11.636 5.32999 11.374 4.99399 11.364H4.99199ZM10.196 13.558L11.938 15.4C12.148 15.588 12.382 15.874 12.692 15.866C12.992 15.858 13.27 15.64 13.304 15.334C13.318 15.208 13.294 15.076 13.234 14.958L10.69 12.27L11.124 11.86L13.986 14.884C13.986 14.884 14.388 15.144 14.684 15.004C15.11 14.802 15.092 14.23 14.79 13.924L12.156 11.18L12.588 10.766L15.446 13.804C15.548 13.858 15.668 13.876 15.784 13.862C15.928 13.846 16.068 13.78 16.178 13.672C16.372 13.478 16.39 13.182 16.264 12.946L11.948 8.45599L10.242 8.43799C8.72799 10.088 7.16199 8.86599 7.15799 8.86199L6.89399 8.66199L7.11999 8.41999L8.63599 6.80399C8.12199 6.79799 7.59399 6.79399 6.79399 6.79399L4.51199 8.43999L2.82399 8.54199V12.716H3.12599C3.12599 12.704 3.12599 12.694 3.12599 12.682C3.13199 12.37 3.25599 12.058 3.48399 11.818C3.70999 11.58 3.93599 11.336 4.16599 11.1C4.39399 10.872 4.69399 10.76 5.01399 10.77C5.56199 10.786 6.05599 11.16 6.18199 11.696L6.54999 11.324C6.78199 11.086 7.08399 10.964 7.41599 10.974C7.92999 10.988 8.40599 11.322 8.55999 11.814C8.76399 11.674 9.00599 11.61 9.24599 11.618C9.90799 11.636 10.454 12.164 10.442 12.836C10.438 13.09 10.354 13.346 10.2 13.562L10.196 13.558ZM11.522 15.828L9.79999 14.008L9.29999 14.554C9.91999 14.662 10.378 15.152 10.298 15.77C10.294 15.926 10.26 16.082 10.198 16.23C10.394 16.436 10.78 16.914 11.1 16.906C11.434 16.896 11.722 16.636 11.716 16.292C11.714 16.126 11.646 15.96 11.522 15.828ZM15.29 15.268C15.018 15.544 14.622 15.688 14.236 15.64H14.234H14.228L14.22 15.638L14.212 15.636H14.206H14.202L14.194 15.634H14.192C14.082 15.616 13.976 15.584 13.876 15.534C13.752 16.07 13.256 16.448 12.708 16.462C12.574 16.466 12.438 16.448 12.31 16.406V16.41V16.418V16.424V16.43V16.438V16.442L12.308 16.452V16.454L12.306 16.466L12.304 16.478V16.48C12.266 16.722 12.168 16.928 12 17.106L11.998 17.11L11.99 17.118L11.988 17.12L11.978 17.13L11.974 17.132L11.954 17.15L11.95 17.152C11.718 17.37 11.418 17.49 11.118 17.498C10.81 17.506 10.502 17.4 10.27 17.168L9.83799 16.71L9.11599 17.426C8.88799 17.668 8.51999 17.766 8.26599 17.76C7.96599 17.752 7.66599 17.632 7.43399 17.414C7.23999 17.242 7.07199 16.832 7.06399 16.588C7.00599 16.594 6.94599 16.598 6.88799 16.596C6.22799 16.578 5.67999 16.052 5.69199 15.38C5.69199 15.348 5.69399 15.314 5.69799 15.282C5.63999 15.288 5.57999 15.292 5.51999 15.29C4.85199 15.272 4.30799 14.738 4.31999 14.062C4.32199 14.006 4.32599 13.952 4.33399 13.896H4.31999C3.90999 13.884 3.50399 13.66 3.28999 13.306H2.81999V14.758H0.843994V8.00799L4.38199 7.83799L6.51199 6.24399L6.69199 6.18399C9.13399 6.18399 11.574 6.19999 14.016 6.19999L14.192 6.25799L16.222 7.75599C17.392 7.83199 18.328 7.83399 19.518 7.83399V14.584H17.542V13.212L16.934 13.21V13.238C16.94 13.548 16.83 13.856 16.594 14.092C16.392 14.294 16.128 14.422 15.844 14.454C15.768 14.462 15.692 14.464 15.618 14.46C15.616 14.76 15.504 15.048 15.29 15.268ZM16.576 12.376C16.638 12.44 16.692 12.51 16.738 12.582L16.768 12.614L17.544 12.618V8.44599L16.098 8.35199L13.918 6.80399C12.42 6.80399 10.934 6.81999 9.44399 6.80599L7.80999 8.54999C8.23399 8.73599 9.05799 8.89599 9.87399 7.94199L9.96399 7.83799H10.102C11.09 7.83799 12.08 7.83799 13.068 7.83799H13.314L13.362 8.07999L13.546 9.16999L16.578 12.376H16.576ZM9.07999 15.13C8.92999 15.126 8.78399 15.176 8.67399 15.284C8.35999 15.614 8.04399 15.964 7.71999 16.282C7.68199 16.364 7.65999 16.452 7.65799 16.54C7.65399 16.696 7.70999 16.852 7.82599 16.97L7.82799 16.972L7.84399 16.988C7.96599 17.102 8.12199 17.164 8.27999 17.168C8.41399 17.172 8.54799 17.132 8.65399 17.042C8.93999 16.802 9.24199 16.464 9.51199 16.196C9.67599 16.024 9.69999 15.844 9.70199 15.756C9.70999 15.408 9.42199 15.138 9.08199 15.128L9.07999 15.13ZM7.24999 15.898L9.63999 13.292C9.75799 13.174 9.83399 12.988 9.83799 12.822C9.84799 12.298 9.16799 12.014 8.81599 12.368C8.81599 12.368 6.77999 14.596 6.48399 14.922C6.35999 15.058 6.28999 15.23 6.28799 15.396C6.28199 15.738 6.56999 15.994 6.90199 16.004C7.02599 16.008 7.14999 15.974 7.24999 15.9V15.898ZM7.95999 12.416C7.98999 12.338 8.00799 12.258 8.00799 12.178C8.00999 12.028 7.95799 11.88 7.84599 11.764L7.84399 11.762L7.82799 11.746C7.70599 11.632 7.54799 11.57 7.39199 11.566C7.22799 11.562 7.08599 11.618 6.96999 11.736C6.34399 12.362 5.77399 13.052 5.09999 13.63C4.97999 13.754 4.91599 13.916 4.91399 14.076C4.90799 14.422 5.19599 14.688 5.53399 14.696C5.68399 14.7 5.83199 14.65 5.94199 14.54L7.95999 12.416Z" fill="#969696"/>
</svg>
