<svg width="20" height="20" viewBox="0 0 25 25" fill="none" xmlns="http://www.w3.org/2000/svg">
<path d="M18.2813 11.3281C17.3438 12.1875 16.5234 12.5391 16.4844 12.5391C16.2891 12.5781 16.0938 12.6172 15.8984 12.5781C15.5078 12.5 14.5703 11.6016 14.5313 11.6016C14.5313 11.6406 14.4141 22.9687 14.4141 23.125C14.375 23.6719 13.75 23.9062 13.5156 23.9062C13.0469 23.9062 12.6172 23.5156 12.5781 23.0469C12.5391 22.5781 12.3828 18.0469 12.3828 17.8125C12.3828 17.6953 12.2656 17.5781 12.1484 17.5781C11.9922 17.5781 11.9141 17.6953 11.9141 17.8125C11.9141 17.8125 11.9531 22.9297 11.9141 23.125C11.7969 23.9062 11.0156 23.9062 11.0156 23.9062C10.9766 23.9062 10.3125 23.9062 10.1563 23.2031C10.1172 23.0859 9.76563 16.2109 9.76563 16.0156C9.375 16.0156 9.0625 15.7031 9.0625 15.3516C9.0625 15.3516 8.98438 11.1719 8.98438 11.0547C8.98438 10.4687 9.02344 9.84375 9.45313 9.375C9.6875 9.10156 10.0391 8.94531 10.3906 8.82812C10.5469 8.75 10.8984 8.67188 10.8984 8.67188L11.7188 10.1953C11.7188 10.0391 11.7578 9.33594 11.7578 9.25781C11.7578 9.17969 11.6406 8.90625 11.6406 8.90625L11.7188 8.86719H12.4609L12.5391 8.90625C12.5391 8.90625 12.4219 9.17969 12.4219 9.25781C12.4219 9.33594 12.4219 9.84375 12.4609 10.1953L13.2813 8.67188C13.2813 8.67188 13.75 8.78906 13.7891 8.78906C14.8828 8.98437 16.4453 10.8594 16.4453 10.8594C16.4844 10.8594 17.7344 9.92187 18.2422 9.72656C18.4766 9.64844 18.7891 9.57031 18.9453 9.76562C18.9844 9.80469 19.375 10.2734 18.2813 11.3281Z" fill="#969696"/>
<path d="M13.3594 5.89843C13.3594 6.67968 12.8125 8.04687 12.0313 8.08593C11.25 8.125 10.5078 6.75781 10.5078 5.97656C10.5078 5.19531 11.1328 4.53125 11.9141 4.53125C12.6953 4.49218 13.3594 5.11718 13.3594 5.89843Z" fill="#969696"/>
<path d="M20.5469 11.7578C20.5469 12.1485 20.2344 12.5 19.8437 12.5C19.8437 12.6953 19.6484 20 19.6094 20.1563C19.4531 20.9375 18.75 20.9375 18.7109 20.9375C18.7109 20.9375 17.8516 20.9766 17.6953 20.1172C17.6562 19.9219 17.5391 14.4532 17.5391 14.4532C17.5391 14.336 17.4609 14.2188 17.3437 14.2188C17.3047 14.2188 17.3047 14.2188 17.2656 14.2188C17.2266 14.2188 17.2266 14.2188 17.1875 14.2188C17.0703 14.2578 16.9922 14.336 16.9922 14.4922C16.9922 14.4922 17.0312 19.9219 16.9922 20.1563C16.875 20.9766 16.0547 20.9766 16.0156 20.9766C15.9766 20.9766 15.2734 20.9766 15.1172 20.1953C15.1172 20.1563 15.0781 19.5313 15.0391 18.6719C15.0391 17.7344 15.0391 16.6407 15.0781 15.3125C15.0781 14.336 15.0781 13.4766 15.1172 12.7735C15.3906 12.9688 15.5859 13.086 15.8203 13.125C16.0937 13.1641 16.3672 13.1641 16.6797 13.086H16.7187C16.7187 13.086 16.9531 13.0078 17.3437 12.7735C17.6953 12.5782 18.2031 12.2266 18.7109 11.7578C19.9609 10.5469 19.6875 9.76566 19.4141 9.37503C19.2578 9.17972 18.8672 8.82816 18.0469 9.14066C17.6953 9.29691 17.1094 9.64847 16.5234 10.0782C15.8203 9.29691 14.8047 8.39847 13.9453 8.20316C13.9453 7.69534 13.9453 7.34378 13.9453 7.30472C13.9453 6.67972 13.9844 6.01566 14.4531 5.54691C14.7266 5.27347 15.0781 5.11722 15.4297 4.96097C15.625 4.88284 15.9766 4.76566 15.9766 4.76566L16.8359 6.36722C16.8359 6.17191 16.875 5.42972 16.875 5.35159C16.875 5.27347 16.7578 4.96097 16.7578 4.96097L16.8359 4.92191H17.5391H17.6172C17.6172 4.92191 17.5 5.23441 17.5 5.31253C17.5 5.39066 17.5391 6.13284 17.5781 6.32816L18.3594 4.68753C18.3594 4.68753 18.75 4.80472 18.9062 4.84378C19.2969 5.00003 19.6484 5.11722 19.9219 5.39066C20.3906 5.85941 20.4297 6.52347 20.4687 7.14847C20.4687 7.30472 20.5469 11.7578 20.5469 11.7578Z" fill="#969696"/>
<path d="M18.5156 2.42189C18.5156 3.12502 18.0469 4.33595 17.3438 4.37502C16.6406 4.41408 15.9766 3.16408 15.9375 2.46095C15.8985 1.75783 16.4844 1.17189 17.1875 1.17189C17.8906 1.13283 18.4766 1.71877 18.5156 2.42189Z" fill="#969696"/>
<path d="M9.96094 5.97656C9.96094 6.64063 10.3516 7.5 10.8203 8.04688L10.7031 8.08594C10.6641 8.08594 10.3125 8.20313 10.1172 8.28125C9.72656 8.4375 9.29688 8.63281 8.98438 8.98438C8.4375 9.57031 8.35938 10.3906 8.35938 11.0547C8.35938 11.1719 8.4375 14.9219 8.4375 15.3516C8.4375 15.7031 8.59375 16.0156 8.82813 16.25C8.94531 16.3281 9.02344 16.4062 9.17969 16.4844C9.21875 16.9141 9.25781 17.6562 9.29688 18.3984C9.33594 19.4141 9.375 20.1953 9.41406 20.8203C9.33594 20.8203 9.29688 20.8203 9.29688 20.8203C9.29688 20.8203 8.4375 20.8594 8.32031 20.0391C8.28125 19.8438 8.16406 14.4141 8.16406 14.4141C8.16406 14.2969 8.08594 14.1797 7.96875 14.1797C7.92969 14.1797 7.92969 14.1797 7.89063 14.1797H7.85156C7.73438 14.2188 7.65625 14.2969 7.65625 14.4531C7.65625 14.4531 7.69531 19.8828 7.65625 20.0781C7.53906 20.8984 6.71875 20.8984 6.67969 20.8984C6.64063 20.8984 5.9375 20.8984 5.78125 20.1172C5.74219 19.9609 5.35156 12.6953 5.35156 12.5C4.96094 12.5 4.60937 12.1875 4.60937 11.7969C4.60937 11.7969 4.53125 7.38281 4.53125 7.26563C4.53125 6.64063 4.57031 5.97656 5.03906 5.50781C5.3125 5.23438 5.66406 5.07813 6.01563 4.92188C6.21094 4.84375 6.5625 4.72656 6.5625 4.72656L7.42188 6.32813C7.42188 6.13281 7.46094 5.42969 7.46094 5.3125C7.46094 5.23438 7.34375 4.92188 7.34375 4.92188L7.42188 4.88281H8.125H8.20313C8.20313 4.88281 8.08594 5.19531 8.08594 5.27344C8.08594 5.35156 8.125 6.09375 8.16406 6.28906L8.98438 4.64844C8.98438 4.64844 9.375 4.76563 9.53125 4.80469C9.76563 4.88281 9.96094 4.96094 10.1563 5.07813C10 5.35156 9.92188 5.66406 9.96094 5.97656Z" fill="#969696"/>
<path d="M9.0625 2.38281C9.0625 3.08594 8.59375 4.29687 7.89063 4.33594C7.1875 4.375 6.52344 3.16406 6.52344 2.42187C6.52344 1.71875 7.07031 1.13281 7.77344 1.09375C8.47656 1.09375 9.0625 1.64062 9.0625 2.38281Z" fill="#969696"/>
<path d="M5.15625 20.1953C5.19531 20.4297 5.27344 20.625 5.39062 20.7813C5.27344 20.8203 5.19531 20.8203 5.19531 20.8203C5.19531 20.8203 4.33594 20.8594 4.21875 20.0391C4.17969 19.8438 4.0625 14.4141 4.0625 14.4141C4.0625 14.2969 3.98437 14.1797 3.86719 14.1797C3.82812 14.1797 3.82812 14.1797 3.78906 14.1797H3.75C3.59375 14.1406 3.51562 14.2578 3.51562 14.375C3.51562 14.375 3.55469 19.8047 3.51562 20C3.39844 20.8203 2.57812 20.8203 2.53906 20.8203C2.5 20.8203 1.79687 20.8203 1.64062 20.0391C1.60156 19.8828 1.21094 12.6172 1.21094 12.4219C0.820312 12.4219 0.46875 12.1094 0.46875 11.7188C0.46875 11.7188 0.390625 7.30469 0.390625 7.1875C0.390625 6.5625 0.429688 5.89844 0.859375 5.42969C1.13281 5.15625 1.48437 5 1.83594 4.84375C2.03125 4.76563 2.38281 4.64844 2.38281 4.64844L3.24219 6.25C3.24219 6.05469 3.28125 5.35156 3.28125 5.23438C3.28125 5.15625 3.16406 4.84375 3.16406 4.84375L3.24219 4.80469H3.94531H4.02344C4.02344 4.80469 3.90625 5.11719 3.90625 5.19531C3.90625 5.27344 3.94531 5.66406 3.94531 5.9375C3.82813 6.32813 3.82812 6.75781 3.82812 7.14844C3.82812 7.26563 3.90625 11.25 3.90625 11.6797C3.90625 12.0313 4.0625 12.3438 4.29688 12.6172C4.41406 12.7344 4.53125 12.8125 4.64844 12.8516C4.6875 13.3203 4.72656 14.1797 4.76562 15.0781C5.11719 19.8438 5.11719 20.0781 5.15625 20.1953Z" fill="#969696"/>
<path d="M5 2.38281C5 3.08594 4.53125 4.29687 3.82813 4.33594C3.125 4.375 2.46094 3.16406 2.46094 2.42187C2.46094 1.71875 3.00781 1.13281 3.71094 1.09375C4.41406 1.09375 5 1.64062 5 2.38281Z" fill="#969696"/>
<path d="M24.6094 7.1875C24.6094 7.30469 24.5312 11.7188 24.5312 11.7188C24.5312 12.1094 24.2188 12.4609 23.7891 12.4219C23.7891 12.6172 23.3984 19.8828 23.3594 20.0391C23.2031 20.8203 22.5 20.8203 22.4609 20.8203C22.4219 20.8203 21.6016 20.8203 21.4844 20C21.4453 19.8047 21.4844 14.375 21.4844 14.375C21.4844 14.2578 21.4063 14.1406 21.2891 14.1016H21.25C21.2109 14.1016 21.2109 14.1016 21.1719 14.1016C21.0547 14.1406 20.9766 14.2188 20.9766 14.3359C20.9766 14.3359 20.8594 19.7656 20.8203 19.9609C20.7031 20.5859 20.2344 20.7031 19.9609 20.7422C20.0391 20.5859 20.1172 20.4297 20.1562 20.1953C20.1562 20.1172 20.1953 20.0781 20.3125 15.1172C20.3516 14.2188 20.3516 13.3594 20.3906 12.8516C20.5078 12.7734 20.625 12.6953 20.7422 12.5781C20.9766 12.3438 21.1328 11.9922 21.1328 11.6406C21.1328 10.3906 21.0938 7.1875 21.0938 7.07031C21.0938 6.75781 21.0547 6.44531 21.0156 6.13281C21.0156 5.89844 21.0938 5.23437 21.0938 5.15625C21.0938 5.07812 20.9766 4.76562 20.9766 4.76562H21.0547H21.7578L21.8359 4.80469C21.8359 4.80469 21.7187 5.11719 21.7187 5.19531C21.7187 5.27344 21.7578 6.01562 21.7578 6.21094L22.6172 4.60938C22.6172 4.60938 23.0078 4.72656 23.1641 4.80469C23.5547 4.96094 23.9062 5.11719 24.1406 5.39062C24.5312 5.89844 24.6094 6.5625 24.6094 7.1875Z" fill="#969696"/>
<path d="M20 2.38281C20 3.08594 20.4687 4.29687 21.1719 4.33594C21.875 4.375 22.5391 3.16406 22.5391 2.42187C22.5391 1.71875 21.9922 1.13281 21.2891 1.09375C20.5859 1.09375 20 1.64062 20 2.38281Z" fill="#969696"/>
</svg>
