<svg width="20" height="20" viewBox="0 0 29 29" fill="none" xmlns="http://www.w3.org/2000/svg">
<path d="M19.7902 9.7643V7.45793C19.7754 4.55532 17.4018 2.1953 14.5003 2.19501C11.598 2.19501 9.22582 4.55532 9.21074 7.45938L9.21103 9.7643C6.67498 10.0937 4.71545 12.26 4.71545 14.8857C4.71545 16.2554 5.24876 17.5009 6.1205 18.4263L6.14138 18.4483L6.31712 18.6244L6.33945 18.6453L14.4992 26.805L22.638 18.6673L22.6827 18.6244L22.8581 18.4483L22.9011 18.4043C23.7592 17.4797 24.2844 16.2452 24.2844 14.8857C24.2847 12.2603 22.3266 10.0937 19.7902 9.7643ZM14.7051 19.0623V20.7417H13.9975V19.0623C13.4566 18.9089 13.0602 18.4115 13.0602 17.8214C13.0602 17.1077 13.6382 16.5294 14.3522 16.5294C15.0656 16.5294 15.6429 17.1077 15.6424 17.8214C15.6421 18.4115 15.2459 18.9089 14.7051 19.0623ZM18.7474 9.73327C16.885 9.8658 15.2964 10.9864 14.5003 12.5718C13.7052 10.9864 12.1148 9.8658 10.2539 9.73327L10.2536 7.46257C10.2658 5.13358 12.1699 3.23814 14.5003 3.23814C16.8296 3.23814 18.7355 5.13358 18.7474 7.45938V9.73327Z" fill="#969696"/>
</svg>
