<svg width="20" height="20" viewBox="0 0 30 30" fill="none" xmlns="http://www.w3.org/2000/svg">
<path d="M15 0.599976C14.6686 0.599976 14.4 0.868596 14.4 1.19998V3.59998C14.4 3.93136 14.6686 4.19998 15 4.19998C15.3314 4.19998 15.6 3.93136 15.6 3.59998V1.19998C15.6 0.868596 15.3314 0.599976 15 0.599976ZM6.51566 4.11562C6.36209 4.11562 6.21095 4.17655 6.09377 4.29373C5.85947 4.52803 5.85947 4.90315 6.09377 5.13748L7.79066 6.83435C8.0249 7.06868 8.40008 7.06868 8.63438 6.83435C8.86871 6.60008 8.86871 6.22495 8.63438 5.99062L6.93752 4.29373C6.82037 4.17655 6.66917 4.11562 6.51566 4.11562ZM23.4844 4.11562C23.3309 4.11562 23.1797 4.17655 23.0625 4.29373L21.3657 5.99062C21.1313 6.22495 21.1313 6.60008 21.3657 6.83435C21.6 7.06868 21.9751 7.06868 22.2094 6.83435L23.9063 5.13748C24.1406 4.90315 24.1406 4.52803 23.9063 4.29373C23.7891 4.17655 23.638 4.11562 23.4844 4.11562ZM15 5.99998C11.3415 5.99998 7.80002 8.83844 7.80002 12.8531C7.80002 17.7656 11.2675 19.015 11.6625 22.2H18.3375C18.7326 19.015 22.2 17.7656 22.2 12.8531C22.2 8.83844 18.6586 5.99998 15 5.99998ZM3.00002 12.6C2.66864 12.6 2.40002 12.8686 2.40002 13.2C2.40002 13.5314 2.66864 13.8 3.00002 13.8H5.40002C5.7314 13.8 6.00002 13.5314 6.00002 13.2C6.00002 12.8686 5.7314 12.6 5.40002 12.6H3.00002ZM24.6 12.6C24.2686 12.6 24 12.8686 24 13.2C24 13.5314 24.2686 13.8 24.6 13.8H27C27.3314 13.8 27.6 13.5314 27.6 13.2C27.6 12.8686 27.3314 12.6 27 12.6H24.6ZM11.7 23.4V24.6H18.3V23.4H11.7ZM11.7 25.8V26.4C11.7 27.0894 12.2669 27.6 12.9 27.6H17.1C17.7332 27.6 18.3 27.0894 18.3 26.4V25.8H11.7ZM13.8 28.2C13.8 28.8648 14.3352 29.4 15 29.4C15.6648 29.4 16.2 28.8648 16.2 28.2H13.8Z" fill="#969696"/>
</svg>
