<svg width="20" height="20" viewBox="0 0 21 21" fill="none" xmlns="http://www.w3.org/2000/svg">
<path d="M13.8026 6.88209C14.3069 6.33542 14.7472 5.76692 14.8912 4.82175C15.0447 3.82132 14.8692 2.96205 14.3059 2.39288C13.948 2.03114 13.3961 1.71531 12.6142 1.72288C11.2609 1.8197 10.8153 2.66917 10.4862 3.36367C10.1608 2.65524 9.61768 1.70829 8.2084 1.72288C7.05445 1.79675 6.36485 2.50039 6.11475 3.38105C5.80983 4.45489 6.20175 5.63858 6.68436 6.31225C7.18257 7.00742 7.90715 7.58506 8.5435 8.1383C9.11658 8.6364 9.5114 8.87436 10.1414 9.36688V11.3404C9.4391 11.4843 8.91861 12.0957 8.91861 12.8503C8.91861 13.5325 9.34852 14.1107 9.9715 14.3184V14.9562H9.25951C8.7701 14.9562 8.7554 15.7274 9.25951 15.7868H9.9715C10.2681 20.3243 8.78514 18.5599 8.34008 17.8036C8.66639 17.6403 8.66639 17.5071 8.48847 17.2697C7.42076 16.0536 6.94617 16.291 7.07963 17.8927C7.10927 18.1596 7.25755 18.2484 7.59867 18.1298C9.00751 20.9177 12.092 20.9177 13.3523 18.1298C13.6935 18.2484 13.8419 18.1597 13.8715 17.8927C14.0048 16.291 13.5304 16.0535 12.4626 17.2696C12.2846 17.5069 12.2846 17.6402 12.611 17.8034C12.1956 18.5448 10.7722 20.3244 10.9797 15.7866H11.6915C12.1956 15.7273 12.1809 14.9561 11.6915 14.9561H10.9797V14.3184C11.6026 14.1108 12.0326 13.5323 12.0326 12.8502C12.0326 12.1 11.5134 11.4853 10.8097 11.3405V9.38983C11.6537 8.68241 12.8164 7.90903 13.8026 6.88209ZM11.0984 12.8503C11.0984 13.1767 10.8314 13.4434 10.5052 13.4733H10.4904C10.1493 13.4733 9.85275 13.1916 9.85275 12.8503C9.85275 12.6259 9.96939 12.4417 10.1413 12.3324V12.6073C10.1413 12.7919 10.2909 12.9416 10.4755 12.9416C10.6601 12.9416 10.8097 12.7919 10.8097 12.6073V12.3294C10.9813 12.4385 11.0984 12.6268 11.0984 12.8503Z" fill="#969696"/>
</svg>
