<svg width="20" height="20" viewBox="0 0 22 22" fill="none" xmlns="http://www.w3.org/2000/svg">
<g clip-path="url(#clip0)">
<path fill-rule="evenodd" clip-rule="evenodd" d="M11 0C9.55546 -1.20378e-07 8.12506 0.284523 6.79048 0.837325C5.4559 1.39013 4.24327 2.20038 3.22183 3.22183C2.20038 4.24327 1.39013 5.4559 0.837325 6.79048C0.284523 8.12506 -1.20378e-07 9.55546 0 11C-1.20378e-07 12.4445 0.284523 13.8749 0.837325 15.2095C1.39013 16.5441 2.20038 17.7567 3.22183 18.7782C4.24327 19.7996 5.4559 20.6099 6.79048 21.1627C8.12506 21.7155 9.55546 22 11 22C12.4445 22 13.8749 21.7155 15.2095 21.1627C16.5441 20.6099 17.7567 19.7996 18.7782 18.7782C19.7996 17.7567 20.6099 16.5441 21.1627 15.2095C21.7155 13.8749 22 12.4445 22 11C22 9.55546 21.7155 8.12506 21.1627 6.79048C20.6099 5.4559 19.7996 4.24327 18.7782 3.22183C17.7567 2.20038 16.5441 1.39013 15.2095 0.837325C13.8749 0.284523 12.4445 -1.20378e-07 11 0V0ZM11.9176 4.58333H16.4991C17.0026 4.58333 17.4158 4.99648 17.4158 5.5V8.2509C17.4158 8.75437 17.0027 9.16756 16.4991 9.16756H13.2881C13.2047 9.16756 13.1242 9.19979 13.0652 9.25887L11.9417 10.3823C11.7749 10.5491 11.5285 10.579 11.3393 10.5005C11.15 10.4221 11.0009 10.2288 11.0009 9.99292V9.39404V7.76034V5.5C11.0009 4.99648 11.414 4.58333 11.9176 4.58333ZM11.9176 5.03988C11.6617 5.03988 11.4574 5.24416 11.4574 5.5V7.76034V9.39404V9.99292C11.4574 10.0441 11.4797 10.0642 11.5147 10.078C11.5498 10.0926 11.5806 10.0936 11.6168 10.0574L12.7402 8.93392C12.885 8.78918 13.0833 8.70748 13.2881 8.70744H16.4991C16.755 8.70744 16.9592 8.50674 16.9592 8.2509V5.5C16.9592 5.24416 16.7549 5.03988 16.4991 5.03988H11.9176ZM13.6811 5.49821V5.4991C13.8719 5.49901 14.0441 5.60386 14.2083 5.71395C14.526 5.50307 14.9035 5.50575 15.2288 5.70142C15.2614 5.69811 15.2944 5.70183 15.3254 5.71233C15.3565 5.72284 15.3849 5.73987 15.4088 5.76229L15.4115 5.76676L15.4303 5.78467H15.4312H15.4338C15.458 5.80898 15.4765 5.83841 15.4878 5.87079C15.4991 5.90317 15.503 5.93767 15.4992 5.97176C15.7267 6.34384 15.7457 6.81859 15.4222 7.13997L14.8976 7.66097L14.373 8.18197C14.3301 8.22438 14.2722 8.24817 14.2119 8.24817C14.1516 8.24817 14.0937 8.22438 14.0508 8.18197L13.5244 7.66276L12.9972 7.14445C12.6178 6.77077 12.6167 6.15359 12.9945 5.7784C12.9948 5.7784 12.9951 5.7784 12.9954 5.7784C13.1844 5.59204 13.4326 5.49835 13.6811 5.49821ZM13.6811 5.95386C13.5499 5.95395 13.419 6.00465 13.3176 6.10425C13.1144 6.30614 13.1153 6.61664 13.3194 6.81771L13.8458 7.33602L14.211 7.69588L14.5745 7.33512L15.099 6.81413C15.2949 6.61957 15.288 6.30541 15.0964 6.10425C14.8926 5.91684 14.5628 5.91193 14.3677 6.10425C14.3248 6.14639 14.2671 6.17001 14.207 6.17001C14.1469 6.17001 14.0892 6.14639 14.0463 6.10425C13.9442 6.00369 13.8125 5.95372 13.6811 5.95386ZM5.5009 11.4583H10.0824C10.586 11.4583 10.9991 11.8715 10.9991 12.375V14.6353V16.269V16.8679C10.9991 17.1038 10.85 17.2971 10.6607 17.3755C10.4715 17.454 10.2251 17.4241 10.0583 17.2573L8.93481 16.1339C8.87583 16.0747 8.79534 16.0426 8.71191 16.0426H5.5009C4.99734 16.0426 4.58422 15.6294 4.58423 15.1259V12.375C4.58423 11.8715 4.99735 11.4583 5.5009 11.4583ZM5.5009 11.9149C5.24505 11.9149 5.04077 12.1192 5.04077 12.375V15.1259C5.04077 15.3817 5.24505 15.5824 5.5009 15.5824H8.71191C8.91673 15.5825 9.11496 15.6642 9.25977 15.8089L10.3832 16.9324C10.4194 16.9686 10.4502 16.9667 10.4853 16.9521C10.5203 16.9383 10.5426 16.919 10.5426 16.8679V16.269V14.6353V12.375C10.5426 12.1192 10.3383 11.9149 10.0824 11.9149H5.5009ZM7.26799 12.3714C7.45844 12.3715 7.62981 12.4767 7.79346 12.5863C8.17142 12.3339 8.67087 12.3225 9.00464 12.6516C9.00494 12.6516 9.00524 12.6516 9.00553 12.6516C9.38327 13.0268 9.38218 13.644 9.00285 14.0177L8.47559 14.536L7.94922 15.0552C7.90632 15.0976 7.84842 15.1214 7.78809 15.1214C7.72776 15.1214 7.66986 15.0976 7.62695 15.0552L7.10238 14.5342L6.5778 14.0132C6.21152 13.6494 6.1708 13.0521 6.55005 12.6785C6.5538 12.6748 6.55768 12.6712 6.56169 12.6677L6.58049 12.6525C6.77016 12.4656 7.01947 12.3722 7.26799 12.3723V12.3714ZM7.26799 12.8289C7.13653 12.8287 7.00481 12.8787 6.90275 12.9792C6.899 12.983 6.89512 12.9865 6.89111 12.99L6.87231 13.0061C6.66809 13.2073 6.6862 13.4758 6.90096 13.6891L7.42554 14.2101L7.78898 14.5709L8.15422 14.211L8.68058 13.6927C8.8847 13.4916 8.88563 13.1811 8.68237 12.9792C8.4794 12.7798 8.15761 12.7784 7.95369 12.9792C7.91083 13.0214 7.85312 13.045 7.79301 13.045C7.7329 13.045 7.67519 13.0214 7.63232 12.9792C7.53087 12.8792 7.39944 12.8289 7.26799 12.8289Z" fill="#969696"/>
</g>
<defs>
<clipPath id="clip0">
<rect width="20" height="20" fill="white"/>
</clipPath>
</defs>
</svg>
