<svg width="20" height="20" viewBox="0 0 27 27" fill="none" xmlns="http://www.w3.org/2000/svg"><path d="M13.5002 3.44418C11.676 3.44418 10.1969 4.92327 10.1969 6.74746C10.1969 8.57165 11.676 10.0507 13.5002 10.0507C15.3244 10.0507 16.8035 8.57165 16.8035 6.74746C16.8035 4.92327 15.3244 3.44418 13.5002 3.44418ZM14.9278 8.2468C14.8405 8.42357 14.7181 8.57122 14.5595 8.69019C14.4 8.80916 14.2127 8.89818 13.9963 8.95766C13.9111 8.98171 13.8221 8.99985 13.7314 9.01377V9.40105H13.2234V9.04583C13.0956 9.04246 12.9724 9.03191 12.8551 9.01293C12.7163 8.98972 12.5919 8.96104 12.4818 8.9256C12.3721 8.891 12.281 8.85557 12.2076 8.81844C12.1342 8.78216 12.0814 8.74757 12.0472 8.71593C12.0135 8.68386 11.9878 8.63324 11.9696 8.5649C11.9515 8.49655 11.9422 8.39488 11.9422 8.2603C11.9422 8.17213 11.9447 8.10083 11.9515 8.0481C11.9574 7.99452 11.9662 7.95149 11.9789 7.92027C11.9911 7.88821 12.0063 7.86669 12.0245 7.85572C12.0426 7.84518 12.0658 7.84011 12.0928 7.84011C12.1266 7.84011 12.1763 7.8591 12.2413 7.89707C12.3075 7.93504 12.389 7.97722 12.4864 8.02279C12.5839 8.06919 12.6978 8.11096 12.8273 8.15061C12.9568 8.19027 13.104 8.2101 13.2682 8.2101C13.3724 8.2101 13.4639 8.2004 13.5449 8.17888C13.6259 8.15736 13.6959 8.12699 13.7554 8.08733C13.8149 8.04768 13.8605 7.99747 13.8908 7.9363C13.9212 7.87513 13.9364 7.8051 13.9364 7.72579C13.9364 7.63424 13.9081 7.55577 13.852 7.49038C13.7951 7.42414 13.7208 7.36719 13.6276 7.31868C13.5344 7.27016 13.4293 7.2246 13.312 7.18157C13.1947 7.13854 13.0741 7.09171 12.9505 7.0394C12.8273 6.9875 12.7071 6.92802 12.5898 6.86094C12.4716 6.79386 12.367 6.7116 12.2734 6.61415C12.181 6.51669 12.1059 6.39941 12.0498 6.26146C11.9928 6.12435 11.9646 5.96024 11.9646 5.76744C11.9646 5.57254 12.0025 5.39324 12.0793 5.22997C12.1552 5.06713 12.2649 4.92791 12.4088 4.81147C12.5518 4.69588 12.7269 4.60602 12.9323 4.54147C13.0239 4.51321 13.1213 4.49127 13.223 4.47524V4.09302H13.7309V4.44739C13.8217 4.45077 13.9111 4.45879 13.9984 4.47229C14.1191 4.49043 14.2279 4.51363 14.3254 4.54063C14.4228 4.56805 14.5055 4.59843 14.5722 4.62964C14.6392 4.66171 14.6878 4.68913 14.7169 4.71233C14.746 4.73554 14.7662 4.75789 14.778 4.78068C14.7903 4.80388 14.7996 4.83088 14.8063 4.86336C14.8122 4.89543 14.8177 4.93508 14.8219 4.98233C14.827 5.02958 14.8287 5.08822 14.8287 5.15825C14.8287 5.24094 14.827 5.3076 14.8219 5.35991C14.8177 5.4118 14.8097 5.45314 14.7987 5.48394C14.7882 5.51347 14.7738 5.53414 14.7557 5.54511C14.7375 5.55566 14.716 5.56157 14.6911 5.56157C14.6637 5.56157 14.6211 5.54511 14.5633 5.51347C14.5055 5.48141 14.4329 5.4464 14.346 5.41011C14.2591 5.37383 14.1587 5.33924 14.044 5.30675C13.9301 5.27469 13.7997 5.25866 13.6533 5.25866C13.5491 5.25866 13.4593 5.26921 13.3833 5.29072C13.3065 5.31224 13.2445 5.34261 13.196 5.38227C13.1467 5.42193 13.1099 5.46833 13.0863 5.52191C13.0614 5.57464 13.0492 5.63244 13.0492 5.69277C13.0492 5.78769 13.0783 5.867 13.1365 5.93071C13.1943 5.99525 13.2703 6.05136 13.3652 6.09988C13.4593 6.14924 13.5668 6.1948 13.6871 6.23783C13.8077 6.28002 13.9297 6.32685 14.0528 6.37747C14.1769 6.42768 14.2988 6.48632 14.4194 6.5534C14.5393 6.62047 14.6473 6.70274 14.7413 6.80019C14.8363 6.89764 14.9122 7.01493 14.97 7.15035C15.0278 7.28577 15.0569 7.44693 15.0569 7.63255C15.0577 7.86543 15.0147 8.07004 14.9278 8.2468Z" fill="#969696"/><path d="M7.84365 7.84812C8.45176 7.84812 8.94474 7.35515 8.94474 6.74703C8.94474 6.13891 8.45176 5.64594 7.84365 5.64594C7.23553 5.64594 6.74255 6.13891 6.74255 6.74703C6.74255 7.35515 7.23553 7.84812 7.84365 7.84812Z" fill="#969696"/><path d="M19.1566 7.84812C19.7648 7.84812 20.2577 7.35515 20.2577 6.74703C20.2577 6.13891 19.7648 5.64594 19.1566 5.64594C18.5485 5.64594 18.0555 6.13891 18.0555 6.74703C18.0555 7.35515 18.5485 7.84812 19.1566 7.84812Z" fill="#969696"/><path d="M22.8268 1.05469H4.1732C3.65851 1.05469 3.2417 1.42341 3.2417 1.87861V11.6159C3.2417 12.0711 3.65893 12.4398 4.1732 12.4398H22.8268C23.3415 12.4398 23.7583 12.0711 23.7583 11.6159V1.87861C23.7583 1.42341 23.3411 1.05469 22.8268 1.05469ZM4.72881 9.38292V4.56005C5.37596 4.55414 6.87911 4.3297 6.8829 2.37009H20.1407C20.1521 3.02189 20.3901 4.46639 22.2716 4.4993V9.33567C21.6401 9.3593 20.4099 9.60356 20.2251 11.1248H6.90231C6.79473 10.3984 6.35345 9.38714 4.72881 9.38292Z" fill="#969696"/><path d="M13.5 19.0274C11.5897 19.0274 10.041 20.5761 10.041 22.4864C10.041 24.3966 11.5897 25.9453 13.5 25.9453C15.4102 25.9453 16.9589 24.3966 16.9589 22.4864C16.9589 20.5761 15.4102 19.0274 13.5 19.0274ZM12.3567 21.4768C12.3622 21.4106 12.3618 21.3401 12.4465 21.3153C12.4546 21.3127 12.4592 21.2866 12.4596 21.271C12.4634 21.1064 12.46 20.9411 12.4706 20.7769C12.4967 20.3593 12.7608 20.0471 13.168 19.9522C13.4325 19.8906 13.6974 19.894 13.9535 19.9885C14.3074 20.1188 14.4876 20.3897 14.5277 20.7542C14.5454 20.9157 14.5369 21.0799 14.5403 21.2427C14.5407 21.2651 14.5403 21.287 14.5403 21.3136C14.6255 21.3292 14.6361 21.3912 14.6428 21.4545C14.6728 21.7359 14.569 21.9713 14.3943 22.1831C14.369 22.2139 14.3475 22.2506 14.3349 22.2877C14.28 22.4493 14.2007 22.5956 14.0809 22.7184C13.7312 23.077 13.2658 23.0741 12.9178 22.7163C12.7933 22.5885 12.7119 22.4349 12.6583 22.2657C12.6507 22.2421 12.6377 22.2189 12.6216 22.2004C12.4436 21.9915 12.3331 21.7586 12.3567 21.4768ZM15.8207 24.7835C15.7157 24.8185 15.6072 24.8472 15.498 24.8645C15.1917 24.913 14.8846 24.9611 14.5766 24.997C14.1142 25.051 13.6502 25.0746 13.184 25.0556C12.5655 25.0303 11.9542 24.9468 11.3459 24.8366C11.2889 24.8265 11.2332 24.8063 11.1797 24.7843C11.0877 24.7472 11.0425 24.678 11.0404 24.5768C11.0358 24.3152 11.0982 24.0718 11.2202 23.8406C11.3611 23.5731 11.5619 23.3694 11.839 23.2462C12.0487 23.1529 12.2618 23.0669 12.4719 22.9741C12.5828 22.9251 12.6908 22.8686 12.8043 22.8138C13.1954 23.2175 13.7603 23.2593 14.2049 22.8112C14.4842 22.9804 14.7951 23.0816 15.0934 23.2112C15.5663 23.4162 15.8283 23.7849 15.9342 24.2756C15.9553 24.3734 15.9532 24.4768 15.9587 24.5776C15.9646 24.6793 15.9139 24.7523 15.8207 24.7835Z" fill="#969696"/><path d="M4.68869 19.0274C2.77844 19.0274 1.22974 20.5761 1.22974 22.4864C1.22974 24.3966 2.77844 25.9453 4.68869 25.9453C6.59894 25.9453 8.14764 24.3966 8.14764 22.4864C8.14764 20.5761 6.59894 19.0274 4.68869 19.0274ZM3.54583 21.4768C3.55131 21.4106 3.55089 21.3401 3.63569 21.3153C3.6437 21.3127 3.64835 21.2866 3.64877 21.271C3.65256 21.1064 3.64919 20.9411 3.65974 20.7769C3.68589 20.3593 3.94999 20.0471 4.3571 19.9522C4.62161 19.8906 4.88655 19.894 5.14263 19.9885C5.49658 20.1188 5.67672 20.3897 5.7168 20.7542C5.73452 20.9157 5.72608 21.0799 5.72945 21.2427C5.72988 21.2651 5.72945 21.287 5.72945 21.3136C5.81467 21.3292 5.82522 21.3912 5.83197 21.4545C5.86192 21.7359 5.75814 21.9713 5.58349 22.1831C5.55817 22.2139 5.53666 22.2506 5.524 22.2877C5.46916 22.4493 5.38985 22.5956 5.27003 22.7184C4.9203 23.077 4.45497 23.0741 4.10692 22.7163C3.98247 22.5885 3.90105 22.4349 3.84747 22.2657C3.83988 22.2421 3.8268 22.2189 3.81077 22.2004C3.63231 21.9915 3.52178 21.7586 3.54583 21.4768ZM7.00984 24.7835C6.9048 24.8185 6.79638 24.8472 6.68711 24.8645C6.38083 24.913 6.0737 24.9611 5.76574 24.997C5.30336 25.051 4.8393 25.0746 4.37313 25.0556C3.75466 25.0303 3.14336 24.9468 2.53502 24.8366C2.47806 24.8265 2.42238 24.8063 2.3688 24.7843C2.27683 24.7472 2.23169 24.678 2.22958 24.5768C2.22494 24.3152 2.28738 24.0718 2.4093 23.8406C2.5502 23.5731 2.75102 23.3694 3.02819 23.2462C3.23786 23.1529 3.45091 23.0669 3.661 22.9741C3.77196 22.9251 3.87995 22.8686 3.99344 22.8138C4.38452 23.2175 4.94941 23.2593 5.39406 22.8112C5.67335 22.9804 5.98427 23.0816 6.28253 23.2112C6.75546 23.4162 7.01744 23.7849 7.12333 24.2756C7.14442 24.3734 7.14231 24.4768 7.1478 24.5776C7.15371 24.6793 7.10266 24.7523 7.00984 24.7835Z" fill="#969696"/><path d="M22.3112 19.0274C20.401 19.0274 18.8523 20.5761 18.8523 22.4864C18.8523 24.3966 20.401 25.9453 22.3112 25.9453C24.2215 25.9453 25.7702 24.3966 25.7702 22.4864C25.7702 20.5761 24.2215 19.0274 22.3112 19.0274ZM21.168 21.4768C21.1735 21.4106 21.173 21.3401 21.2578 21.3153C21.2658 21.3127 21.2705 21.2866 21.2709 21.271C21.2747 21.1064 21.2713 20.9411 21.2819 20.7769C21.308 20.3593 21.5721 20.0471 21.9792 19.9522C22.2437 19.8906 22.5087 19.894 22.7648 19.9885C23.1187 20.1188 23.2989 20.3897 23.3389 20.7542C23.3567 20.9157 23.3482 21.0799 23.3516 21.2427C23.352 21.2651 23.3516 21.287 23.3516 21.3136C23.4368 21.3292 23.4474 21.3912 23.4541 21.4545C23.4841 21.7359 23.3803 21.9713 23.2056 22.1831C23.1803 22.2139 23.1588 22.2506 23.1461 22.2877C23.0913 22.4493 23.012 22.5956 22.8922 22.7184C22.5424 23.077 22.0771 23.0741 21.7291 22.7163C21.6046 22.5885 21.5232 22.4349 21.4696 22.2657C21.462 22.2421 21.4489 22.2189 21.4329 22.2004C21.2549 21.9915 21.1443 21.7586 21.168 21.4768ZM24.632 24.7835C24.5269 24.8185 24.4185 24.8472 24.3093 24.8645C24.003 24.913 23.6958 24.9611 23.3879 24.997C22.9255 25.051 22.4614 25.0746 21.9953 25.0556C21.3768 25.0303 20.7655 24.9468 20.1572 24.8366C20.1002 24.8265 20.0445 24.8063 19.9909 24.7843C19.899 24.7472 19.8538 24.678 19.8517 24.5768C19.8471 24.3152 19.9095 24.0718 20.0314 23.8406C20.1723 23.5731 20.3732 23.3694 20.6503 23.2462C20.86 23.1529 21.073 23.0669 21.2831 22.9741C21.3941 22.9251 21.5021 22.8686 21.6156 22.8138C22.0067 23.2175 22.5715 23.2593 23.0162 22.8112C23.2955 22.9804 23.6064 23.0816 23.9047 23.2112C24.3776 23.4162 24.6396 23.7849 24.7455 24.2756C24.7666 24.3734 24.7645 24.4768 24.7699 24.5776C24.7758 24.6793 24.7252 24.7523 24.632 24.7835Z" fill="#969696"/><path d="M22.3627 15.2546H13.8931V13.4629C13.8931 13.2456 13.7172 13.0697 13.5 13.0697C13.2827 13.0697 13.1068 13.2456 13.1068 13.4629V15.2546H4.63721C4.41994 15.2546 4.24402 15.4305 4.24402 15.6478V17.8327C4.24402 18.0499 4.41994 18.2258 4.63721 18.2258C4.85447 18.2258 5.03039 18.0499 5.03039 17.8327V16.0409H13.1072V17.8327C13.1072 18.0499 13.2831 18.2258 13.5004 18.2258C13.7176 18.2258 13.8936 18.0499 13.8936 17.8327V16.0409H21.9704V17.8327C21.9704 18.0499 22.1463 18.2258 22.3636 18.2258C22.5808 18.2258 22.7567 18.0499 22.7567 17.8327V15.6478C22.7559 15.4305 22.58 15.2546 22.3627 15.2546Z" fill="#969696"/></svg>