<svg width="20" height="20" viewBox="0 0 23 23" fill="none" xmlns="http://www.w3.org/2000/svg">
<g clip-path="url(#clip0)">
<path d="M11.4578 7.87612C12.2556 7.87612 13.0247 7.93178 13.7534 8.03091C13.9332 7.89889 14.0181 7.66544 13.9349 7.44579L13.3875 6.06096C13.315 5.87144 13.1411 5.75345 12.9514 5.73712V5.73321H12.9353C12.9293 5.73321 12.9254 5.73321 12.9192 5.73321L10.0134 5.7339L10.012 5.7362C9.80267 5.73252 9.60441 5.85396 9.52529 6.06096L8.97812 7.44579C8.89486 7.66544 8.97858 7.89935 9.1589 8.0316C9.88846 7.93178 10.6587 7.87612 11.4578 7.87612Z" fill="#969696"/>
<path d="M11.5052 5.38063C12.0996 5.38063 12.5814 4.89881 12.5814 4.30446C12.5814 3.7101 12.0996 3.22829 11.5052 3.22829C10.9109 3.22829 10.4291 3.7101 10.4291 4.30446C10.4291 4.89881 10.9109 5.38063 11.5052 5.38063Z" fill="#969696"/>
<path d="M11.5052 11.448C12.0996 11.448 12.5814 10.9662 12.5814 10.3718C12.5814 9.77749 12.0996 9.29568 11.5052 9.29568C10.9109 9.29568 10.4291 9.77749 10.4291 10.3718C10.4291 10.9662 10.9109 11.448 11.5052 11.448Z" fill="#969696"/>
<path d="M2.41562 8.60568C3.01023 8.60568 3.49225 8.12365 3.49225 7.52905C3.49225 6.93444 3.01023 6.45242 2.41562 6.45242C1.82101 6.45242 1.33899 6.93444 1.33899 7.52905C1.33899 8.12365 1.82101 8.60568 2.41562 8.60568Z" fill="#969696"/>
<path d="M20.5139 8.60546C21.1084 8.60546 21.5903 8.12354 21.5903 7.52906C21.5903 6.93458 21.1084 6.45266 20.5139 6.45266C19.9194 6.45266 19.4375 6.93458 19.4375 7.52906C19.4375 8.12354 19.9194 8.60546 20.5139 8.60546Z" fill="#969696"/>
<path d="M22.4765 10.275H21.9059L21.8691 10.0048C21.8093 9.683 21.6336 9.39297 21.3686 9.19402L21.3534 9.17378C21.3525 9.17378 21.3502 9.17401 21.3486 9.17401C21.3235 9.15607 21.2943 9.14135 21.2674 9.12479C21.243 9.10961 21.2191 9.09351 21.1934 9.07994C21.1237 9.04222 21.0494 9.0091 20.9705 8.98587C20.2743 8.7814 19.544 9.18183 19.3398 9.8785L19.2296 10.4284H18.0679C17.7992 10.4284 17.5812 10.6465 17.5812 10.9151C17.5812 11.184 17.7992 11.4022 18.0679 11.4022H19.6781C19.6848 11.4664 19.6887 11.5324 19.6887 11.5741C19.6896 11.589 19.6896 11.6037 19.6903 11.6187H19.6887C19.6887 13.3409 17.129 14.7872 13.6484 15.2235L13.5919 14.179C13.607 14.1751 13.6224 14.1774 13.6379 14.1714C13.9017 14.0714 14.0351 13.7772 13.9348 13.5134L13.3874 12.1288C13.3149 11.9386 13.1411 11.8204 12.9513 11.8045V11.8006H12.9352C12.9292 11.8006 12.9253 11.8006 12.9191 11.8006L10.0133 11.8013L10.0119 11.8036C9.80261 11.7997 9.60435 11.9216 9.52523 12.1288L8.97806 13.5134C8.87801 13.7772 9.01072 14.0716 9.2743 14.1714C9.28603 14.176 9.29753 14.1737 9.3088 14.1774L9.25199 15.2196C5.78635 14.7796 3.24071 13.3363 3.24071 11.6187H3.23933C3.23979 11.6037 3.24025 11.589 3.24071 11.5741C3.24048 11.5324 3.24416 11.4664 3.25175 11.4022H4.86129C5.12993 11.4022 5.34797 11.1842 5.34797 10.9151C5.34797 10.6465 5.12993 10.4284 4.86129 10.4284H3.70002L3.58985 9.8785C3.38538 9.18183 2.65559 8.7814 1.95869 8.98587C1.88003 9.0091 1.80597 9.04222 1.73651 9.07994C1.71052 9.09351 1.68683 9.10961 1.66222 9.12479C1.63531 9.14135 1.60633 9.15607 1.5808 9.17401C1.57942 9.17401 1.57735 9.17378 1.57666 9.17378L1.56148 9.19402C1.29629 9.39297 1.12011 9.683 1.06008 10.0048L1.02374 10.275H0.452419L-0.00183105 17.8103H0.428959L0.916559 15.1483C0.916559 15.0443 0.967159 14.9532 1.04444 14.8957L0.928979 16.4905H1.33378L1.65831 14.8348H4.02593L4.02892 14.8371C4.19797 14.8394 4.33436 14.9737 4.33965 15.1418L4.3408 15.1434L4.72904 17.8105H5.11015L5.22239 17.3569L5.22377 17.3834C5.36545 17.4841 5.54025 17.5375 5.7254 17.5108C6.10881 17.4535 6.374 17.0968 6.31857 16.7134L6.14561 14.9051C7.04491 15.2522 8.08911 15.5137 9.22784 15.6628L8.99623 19.9097H9.49855L9.65587 18.0925C9.68623 18.0092 9.75638 17.9487 9.84263 17.9273H13.0583C13.1447 17.9487 13.2144 18.009 13.245 18.0925L13.4019 19.9097H13.904L13.6728 15.6671C14.8224 15.5183 15.8769 15.255 16.7836 14.9049L16.6106 16.7136C16.5547 17.097 16.8204 17.4538 17.2035 17.511C17.3889 17.5377 17.5633 17.4844 17.7049 17.3836L17.7066 17.3572L17.819 17.8107H18.1999L18.5882 15.1437L18.5898 15.142C18.595 14.9739 18.7312 14.8396 18.9005 14.8373L18.9037 14.835H21.2713L21.5959 16.4908H22.0007L21.8852 14.8959C21.9625 14.9534 22.0128 15.0445 22.0128 15.1485L22.5005 17.8105H22.931L22.4765 10.275ZM1.33378 12.118L1.56631 11.8471H2.89502C2.90514 11.9381 2.92285 12.0285 2.9447 12.118H1.33378ZM19.9849 12.118C19.9849 12.1157 19.9856 12.1134 19.9856 12.1113C20.0056 12.0304 20.0208 11.949 20.0307 11.8668C20.0316 11.8604 20.0339 11.8537 20.0346 11.8473H21.3631L21.5959 12.1182H19.9849V12.118Z" fill="#969696"/>
<path d="M11.5052 5.38063C12.0996 5.38063 12.5814 4.89881 12.5814 4.30446C12.5814 3.7101 12.0996 3.22829 11.5052 3.22829C10.9109 3.22829 10.4291 3.7101 10.4291 4.30446C10.4291 4.89881 10.9109 5.38063 11.5052 5.38063Z" fill="#969696"/>
<path d="M11.5052 11.448C12.0996 11.448 12.5814 10.9662 12.5814 10.3718C12.5814 9.77749 12.0996 9.29568 11.5052 9.29568C10.9109 9.29568 10.4291 9.77749 10.4291 10.3718C10.4291 10.9662 10.9109 11.448 11.5052 11.448Z" fill="#969696"/>
<path d="M2.41562 8.60568C3.01023 8.60568 3.49225 8.12365 3.49225 7.52905C3.49225 6.93444 3.01023 6.45242 2.41562 6.45242C1.82101 6.45242 1.33899 6.93444 1.33899 7.52905C1.33899 8.12365 1.82101 8.60568 2.41562 8.60568Z" fill="#969696"/>
<path d="M20.5139 8.60546C21.1084 8.60546 21.5903 8.12354 21.5903 7.52906C21.5903 6.93458 21.1084 6.45266 20.5139 6.45266C19.9194 6.45266 19.4375 6.93458 19.4375 7.52906C19.4375 8.12354 19.9194 8.60546 20.5139 8.60546Z" fill="#969696"/>
</g>
<defs>
<clipPath id="clip0">
<rect width="23" height="23" fill="white"/>
</clipPath>
</defs>
</svg>
