<svg width="20" height="20" viewBox="0 0 26 26" fill="none" xmlns="http://www.w3.org/2000/svg">
<path d="M15.7279 20.0985H7.46506C7.01682 20.0985 6.6523 19.7194 6.6523 19.2525V5.60456C6.6523 5.13812 7.01682 4.75852 7.46506 4.75852H17.8864C18.3346 4.75852 18.6991 5.13812 18.6991 5.60456V18.1449C18.6991 18.4324 18.9316 18.6649 19.2191 18.6649C19.5067 18.6649 19.7391 18.4324 19.7391 18.1449V5.60456C19.7391 4.56456 18.9077 3.71852 17.8864 3.71852H7.46506C6.44326 3.71852 5.6123 4.56456 5.6123 5.60456V19.2525C5.6123 20.2925 6.44378 21.1385 7.46506 21.1385H15.7279C16.0154 21.1385 16.2479 20.9061 16.2479 20.6185C16.2479 20.331 16.0154 20.0985 15.7279 20.0985Z" fill="#969696"/>
<path d="M16.8433 9.7448H8.50927C8.36575 9.7448 8.24927 9.86128 8.24927 10.0048C8.24927 10.1483 8.36575 10.2648 8.50927 10.2648H16.8428C16.9863 10.2648 17.1028 10.1483 17.1028 10.0048C17.1028 9.86128 16.9868 9.7448 16.8433 9.7448Z" fill="#969696"/>
<path d="M16.8433 6.64977H8.50927C8.36575 6.64977 8.24927 6.76624 8.24927 6.90976C8.24927 7.05328 8.36575 7.16976 8.50927 7.16976H16.8428C16.9863 7.16976 17.1028 7.05328 17.1028 6.90976C17.1028 6.76624 16.9868 6.64977 16.8433 6.64977Z" fill="#969696"/>
<path d="M16.7071 17.8703L16.5833 17.9936L15.9021 17.3124C16.0591 17.1309 16.1985 16.9354 16.3191 16.7268C16.4283 16.6842 16.5136 16.6041 16.5724 16.5043H16.8433C16.9868 16.5043 17.1033 16.3878 17.1033 16.2443C17.1033 16.1008 16.9868 15.9843 16.8433 15.9843H16.6483C16.758 15.6333 16.8173 15.2599 16.8173 14.873C16.8173 14.377 16.718 13.9038 16.5412 13.4706H16.8433C16.9868 13.4706 17.1033 13.3541 17.1033 13.2106C17.1033 13.0671 16.9868 12.9506 16.8433 12.9506H16.4237C16.3576 12.8383 16.2541 12.7566 16.1267 12.7197C15.4502 11.7692 14.3426 11.1467 13.0905 11.1467C11.739 11.1467 10.5575 11.8721 9.90391 12.9511H8.50927C8.36575 12.9511 8.24927 13.0676 8.24927 13.2111C8.24927 13.3546 8.36575 13.4711 8.50927 13.4711H9.63975C9.46295 13.9043 9.36363 14.3775 9.36363 14.8736C9.36363 15.2604 9.42291 15.6338 9.53263 15.9848H8.50927C8.36575 15.9848 8.24927 16.1013 8.24927 16.2448C8.24927 16.3883 8.36575 16.5048 8.50927 16.5048H9.74427C10.3506 17.7434 11.6204 18.6004 13.0905 18.6004C13.9318 18.6004 14.7066 18.3165 15.3317 17.8448L16.0321 18.5453L15.9312 18.6467L20.2628 23.3667L20.8452 22.7843L21.4276 22.2019L16.7071 17.8703ZM10.374 13.7311H15.8064C15.9546 14.0826 16.0368 14.469 16.0368 14.8736C16.0368 15.1694 15.9921 15.4549 15.9104 15.7248H10.27C10.1883 15.4549 10.1436 15.17 10.1436 14.8736C10.1436 14.469 10.2258 14.0826 10.374 13.7311ZM15.0633 12.6911H11.1176C11.6407 12.2179 12.3313 11.9267 13.0905 11.9267C13.8497 11.9267 14.5402 12.2179 15.0633 12.6911ZM10.8331 16.7648H15.3478C14.8065 17.4091 13.9958 17.8204 13.0905 17.8204C12.1851 17.8204 11.3745 17.4091 10.8331 16.7648Z" fill="#969696"/>
</svg>
