<svg width="20" height="20" viewBox="0 0 25 25" fill="none" xmlns="http://www.w3.org/2000/svg">
<path d="M12.775 9.90001V12L14.55 13.15C14.675 13.225 14.7 13.4 14.625 13.5C14.575 13.575 14.5 13.625 14.4 13.625C14.35 13.625 14.3 13.6 14.25 13.575L12.5 12.45L10.75 13.575C10.7 13.6 10.65 13.625 10.6 13.625C10.525 13.625 10.425 13.575 10.375 13.5C10.3 13.375 10.325 13.225 10.45 13.15L12.25 12V9.90001C12.25 9.75001 12.375 9.65001 12.5 9.65001C12.65 9.65001 12.775 9.75001 12.775 9.90001ZM17.35 16.85C17.2001 16.85 17.1 16.975 17.1 17.1V19.2L15.325 20.35C15.2 20.425 15.175 20.6 15.25 20.7C15.3 20.775 15.375 20.825 15.475 20.825C15.525 20.825 15.575 20.8 15.625 20.775L17.375 19.65L19.125 20.775C19.175 20.8 19.225 20.825 19.275 20.825C19.35 20.825 19.4501 20.775 19.5 20.7C19.5751 20.575 19.55 20.425 19.425 20.35L17.65 19.2V17.1C17.6 16.975 17.475 16.85 17.35 16.85ZM5.77505 20.85C5.82505 20.85 5.87505 20.825 5.92505 20.8L7.67505 19.675L9.42505 20.8C9.47505 20.825 9.52505 20.85 9.57505 20.85C9.65005 20.85 9.75005 20.8 9.80005 20.725C9.87505 20.6 9.85005 20.45 9.72505 20.375L7.95005 19.225V17.125C7.95005 16.975 7.82505 16.875 7.70005 16.875C7.57505 16.875 7.45005 17 7.45005 17.125V19.225L5.67505 20.375C5.55005 20.45 5.52505 20.625 5.60005 20.725C5.62505 20.8 5.70005 20.85 5.77505 20.85ZM11.475 6.25001C11.3 6.32501 10.475 6.75001 9.72505 7.37501C9.57505 7.50001 9.50005 7.67501 9.50005 7.85001V8.70001H12.1H12.9H15.5V7.85001C15.5 7.67501 15.425 7.50001 15.275 7.40001C14.5 6.77501 13.675 6.35001 13.525 6.27501C13.5 6.27501 13.5 6.25001 13.5 6.22501V5.02501C13.65 4.92501 13.75 4.75001 13.75 4.55001V3.32501C13.75 2.70001 13.25 2.22501 12.65 2.22501H12.5H12.375C11.75 2.22501 11.275 2.72501 11.275 3.32501V4.55001C11.275 4.75001 11.375 4.92501 11.525 5.02501V6.22501C11.5 6.22501 11.5 6.25001 11.475 6.25001ZM19.925 15.175C19.925 15.025 19.85 14.875 19.725 14.775C19.0751 14.225 18.35 13.875 18.2001 13.8C18.1751 13.8 18.175 13.775 18.175 13.75V12.75C18.3 12.675 18.4 12.525 18.4 12.35V11.275C18.4 10.75 17.975 10.325 17.4501 10.325H17.3251H17.2001C16.6751 10.325 16.25 10.75 16.25 11.275V12.35C16.25 12.525 16.325 12.675 16.475 12.75V13.775C16.475 13.8 16.475 13.8 16.45 13.825C16.3 13.9 15.6 14.25 14.925 14.8C14.8 14.9 14.725 15.05 14.725 15.2V15.925H16.975H17.65H19.9V15.175H19.925ZM6.77505 13.8C6.62505 13.875 5.92505 14.225 5.25005 14.775C5.12505 14.875 5.05005 15.025 5.05005 15.175V15.9H7.30005H8.00005H10.25V15.175C10.25 15.025 10.175 14.875 10.05 14.775C9.40005 14.225 8.67505 13.875 8.52505 13.8C8.50005 13.8 8.50005 13.775 8.50005 13.75V12.75C8.62505 12.675 8.72505 12.525 8.72505 12.35V11.275C8.72505 10.75 8.30005 10.325 7.77505 10.325H7.65005H7.52505C7.00005 10.325 6.57505 10.75 6.57505 11.275V12.35C6.57505 12.525 6.65005 12.675 6.80005 12.75V13.775C6.80005 13.775 6.80005 13.8 6.77505 13.8ZM5.10005 22.8V22.15C5.10005 22.025 5.05005 21.875 4.92505 21.8C4.35005 21.325 3.72505 21 3.60005 20.95C3.57505 20.95 3.57505 20.925 3.57505 20.9V20C3.70005 19.925 3.77505 19.8 3.77505 19.65V18.725C3.77505 18.25 3.40005 17.875 2.92505 17.875H2.82505H2.72505C2.25005 17.875 1.87505 18.25 1.87505 18.725V19.65C1.87505 19.8 1.95005 19.925 2.07505 20V20.9C2.07505 20.925 2.07505 20.925 2.05005 20.95C1.92505 21 1.30005 21.325 0.725049 21.8C0.625049 21.875 0.550049 22.025 0.550049 22.15V22.8H2.52505H3.12505H5.10005ZM12.8 22.8H14.775V22.15C14.775 22.025 14.725 21.875 14.6 21.8C14.025 21.325 13.4 21 13.275 20.95C13.25 20.95 13.25 20.925 13.25 20.9V20C13.375 19.925 13.45 19.8 13.45 19.65V18.725C13.45 18.25 13.075 17.875 12.6 17.875H12.5H12.4C11.925 17.875 11.55 18.25 11.55 18.725V19.65C11.55 19.8 11.625 19.925 11.75 20V20.9C11.75 20.925 11.75 20.925 11.725 20.95C11.6 21 10.975 21.325 10.4 21.8C10.3 21.875 10.225 22.025 10.225 22.15V22.8H12.2H12.8ZM22.9501 20.95C22.9251 20.95 22.925 20.925 22.925 20.9V20C23.05 19.925 23.125 19.8 23.125 19.65V18.725C23.125 18.25 22.75 17.875 22.275 17.875H22.175H22.0751C21.6 17.875 21.225 18.25 21.225 18.725V19.65C21.225 19.8 21.3 19.925 21.425 20V20.9C21.425 20.925 21.425 20.925 21.4 20.95C21.275 21 20.6501 21.325 20.0751 21.8C19.975 21.875 19.9 22.025 19.9 22.15V22.8H21.875H22.475H24.4501V22.15C24.4501 22.025 24.4 21.875 24.275 21.8C23.7 21.325 23.0751 21 22.9501 20.95Z" fill="#969696"/>
</svg>
