<svg width="20" height="20" viewBox="0 0 25 25" fill="none" xmlns="http://www.w3.org/2000/svg">
<path fill-rule="evenodd" clip-rule="evenodd" d="M19.5855 19.4731C21.6167 19.9957 22.4325 20.7305 21.4764 21.4398C19.9521 22.5431 14.7144 23.1629 9.75225 22.824C4.82325 22.4872 2.0216 21.3268 3.53639 20.2234C5.06066 19.1201 10.2983 18.5035 15.2273 18.8434C15.2966 18.8482 15.3655 18.853 15.434 18.858C15.4014 18.7251 15.3719 18.5916 15.3457 18.4577C15.192 17.6711 15.0809 16.8761 14.9356 16.0877C14.9131 15.9655 14.8292 15.8256 14.7306 15.7511C14.0133 15.2092 13.2862 14.6802 12.558 14.1531C12.493 14.1062 12.3968 14.0781 12.3165 14.0808C11.9626 14.0927 11.6505 13.9904 11.3665 13.7824C9.68179 12.549 8.38238 10.9844 7.41134 9.14557C6.96717 8.30441 7.5495 7.40244 8.49889 7.41174C8.5972 7.41276 8.71398 7.3691 8.79187 7.30768C9.22487 6.96634 9.56692 6.54361 9.85343 6.07416C10.3682 5.23061 10.6436 4.3057 10.7788 3.3347C10.8411 2.88717 11.1446 2.63414 11.5856 2.67922C11.9422 2.71562 12.2318 3.06457 12.1837 3.42801C12.0296 4.59116 11.7051 5.70041 11.1051 6.71778C11.0762 6.76662 10.9656 6.94779 10.882 7.05947C11.7498 6.56057 12.4411 5.85261 13.0422 5.03709C13.321 4.65887 13.7393 4.57362 14.0799 4.82564C14.4002 5.06255 14.4426 5.50038 14.1755 5.86678C13.6692 6.56159 13.0954 7.19294 12.4128 7.71996C11.7288 8.24817 10.9947 8.64371 10.1803 8.8769C10.2479 9.03141 10.3243 9.15996 10.3812 9.22838C11.0405 10.0209 11.7945 10.7125 12.6648 11.269C12.7543 11.3263 12.9011 11.345 13.0057 11.3189C13.7616 11.1302 14.518 10.9408 15.2653 10.7212C16.0334 10.4955 16.7633 10.549 17.4654 10.9316C18.5379 11.5161 19.6094 12.1027 20.6769 12.6963C20.7883 12.7582 20.8882 12.8605 20.9629 12.9657C21.2308 13.3438 21.1945 13.8468 20.8893 14.1905C20.595 14.5217 20.097 14.6223 19.6983 14.4038C19.3176 14.1952 18.9571 13.9497 18.578 13.738C17.8781 13.3475 17.1729 12.9663 16.4648 12.591C16.3671 12.5392 16.2297 12.5023 16.1281 12.5278C15.5733 12.6671 15.0239 12.828 14.41 12.9989C15.0158 13.4854 15.5822 13.9111 16.1111 14.3791C16.3343 14.5765 16.512 14.8463 16.6482 15.1148C16.7617 15.3383 16.8022 15.6051 16.8439 15.8578C17.0232 16.9433 17.1501 18.0375 17.5391 19.0799C18.1003 19.1593 18.6154 19.2511 19.0793 19.3529C19.1596 18.9509 19.0328 18.6424 18.7635 18.394C18.6318 18.2725 18.4998 18.1956 18.421 18.1632C18.288 18.1085 18.2245 17.9563 18.2792 17.8233C18.3339 17.6903 18.4861 17.6269 18.6191 17.6816C18.7504 17.7355 18.9333 17.842 19.1167 18.0112C19.5206 18.3839 19.7101 18.8779 19.5855 19.4731ZM6.51042 7.81249C5.50365 7.81249 4.6875 6.99634 4.6875 5.98957C4.6875 4.9828 5.50365 4.16666 6.51042 4.16666C7.51719 4.16666 8.33333 4.9828 8.33333 5.98957C8.33333 6.99634 7.51719 7.81249 6.51042 7.81249ZM13.9721 2.91801C13.8286 2.90853 13.72 2.7845 13.7295 2.64099C13.7389 2.49748 13.863 2.38883 14.0065 2.39831C14.1338 2.40673 14.3462 2.43726 14.6162 2.50397C15.0637 2.61457 15.5113 2.79006 15.9308 3.04565C17.0109 3.7038 17.7112 4.76837 17.8404 6.30269C17.8525 6.44601 17.7461 6.57197 17.6027 6.58403C17.4594 6.5961 17.3335 6.4897 17.3214 6.34638C17.2066 4.98337 16.6024 4.06476 15.6598 3.49042C15.2891 3.2646 14.8902 3.10821 14.4912 3.00959C14.2532 2.95076 14.0706 2.92452 13.9721 2.91801ZM15.3007 1.38957C15.1572 1.38008 15.0486 1.25606 15.058 1.11255C15.0675 0.969035 15.1915 0.860385 15.3351 0.86987C15.4624 0.878283 15.6748 0.908812 15.9447 0.975524C16.3922 1.08613 16.8399 1.26161 17.2593 1.51721C18.3395 2.17536 19.0398 3.23993 19.169 4.77424C19.181 4.91756 19.0746 5.04352 18.9313 5.05559C18.788 5.06765 18.662 4.96125 18.65 4.81794C18.5352 3.45493 17.9309 2.53632 16.9883 1.96198C16.6177 1.73615 16.2188 1.57977 15.8198 1.48114C15.5817 1.42231 15.3992 1.39608 15.3007 1.38957ZM19.4627 17.1216C19.3297 17.0669 19.2662 16.9147 19.3209 16.7817C19.3756 16.6487 19.5278 16.5852 19.6608 16.6399C19.792 16.6939 19.975 16.8003 20.1584 16.9695C20.6809 17.4517 20.8445 18.1367 20.4337 18.9813C20.3708 19.1107 20.215 19.1645 20.0857 19.1016C19.9563 19.0387 19.9025 18.8829 19.9654 18.7536C20.2709 18.1253 20.1657 17.685 19.8052 17.3523C19.6735 17.2308 19.5414 17.154 19.4627 17.1216Z" fill="#969696"/>
</svg>
