<svg width="14" height="14" viewbox="0 0 18 14" fill="none" xmlns="http://www.w3.org/2000/svg">
  <path d="M2.04184 11.0911C2.58329 11.0906 3.10245 10.8754 3.48536 10.4926C3.86828 10.1097 4.08368 9.59064 4.08427 9.04919C4.08303 8.75468 4.01737 8.46401 3.8919 8.19756L5.29815 6.97469C5.63649 7.20665 6.03711 7.3308 6.44734 7.3308C6.85756 7.3308 7.25818 7.20665 7.59652 6.97469L9.01459 8.2015C8.88981 8.46754 8.82454 8.75759 8.82334 9.05144C8.83223 9.58718 9.05129 10.098 9.4333 10.4737C9.81532 10.8494 10.3297 11.06 10.8655 11.06C11.4013 11.06 11.9157 10.8494 12.2977 10.4737C12.6797 10.098 12.8988 9.58718 12.9076 9.05144C12.9064 8.6124 12.7623 8.18571 12.497 7.83587L15.2257 4.80456C15.4585 4.89702 15.7065 4.94528 15.957 4.94688C16.3609 4.94688 16.7558 4.82709 17.0917 4.60266C17.4276 4.37824 17.6893 4.05925 17.8439 3.68604C17.9985 3.31284 18.039 2.90217 17.9602 2.50598C17.8813 2.10978 17.6868 1.74586 17.4012 1.46022C17.1155 1.17458 16.7516 0.980053 16.3554 0.901245C15.9592 0.822437 15.5486 0.862884 15.1754 1.01747C14.8021 1.17206 14.4832 1.43384 14.2587 1.76972C14.0343 2.1056 13.9145 2.50048 13.9145 2.90444C13.9159 3.34353 14.0602 3.77024 14.3257 4.12L11.5976 7.15131C11.2955 7.03087 10.9687 6.9857 10.6454 7.0197C10.322 7.05371 10.0117 7.16586 9.74134 7.3465L8.30977 6.109C8.42428 5.85133 8.48349 5.57253 8.48359 5.29056C8.48453 4.98623 8.41744 4.68553 8.28721 4.41047C8.15698 4.1354 7.96692 3.89293 7.73091 3.70078C7.49491 3.50863 7.21893 3.37167 6.92318 3.29991C6.62743 3.22815 6.31937 3.22341 6.02155 3.28603C5.72373 3.34866 5.44367 3.47706 5.20187 3.66186C4.96006 3.84665 4.76262 4.08317 4.62399 4.35409C4.48536 4.62502 4.40905 4.92351 4.40063 5.22773C4.39221 5.53194 4.4519 5.8342 4.57534 6.11237L3.16009 7.34312C2.89413 7.16859 2.59106 7.05862 2.27506 7.02201C1.95906 6.98539 1.63888 7.02313 1.34006 7.13222C1.04123 7.24132 0.772043 7.41874 0.553961 7.65033C0.335879 7.88193 0.174942 8.16129 0.0839906 8.46612C-0.00696096 8.77095 -0.0254098 9.09283 0.0301161 9.40606C0.085642 9.71929 0.213606 10.0152 0.403798 10.2702C0.59399 10.5252 0.841146 10.7322 1.12555 10.8747C1.40995 11.0173 1.72372 11.0913 2.04184 11.0911ZM15.9581 1.98475C16.1395 1.98475 16.3169 2.03856 16.4678 2.13937C16.6187 2.24018 16.7362 2.38346 16.8057 2.5511C16.8751 2.71874 16.8933 2.90321 16.8579 3.08117C16.8225 3.25914 16.7351 3.42261 16.6068 3.55091C16.4785 3.67922 16.315 3.7666 16.1371 3.802C15.9591 3.8374 15.7746 3.81923 15.607 3.74979C15.4394 3.68035 15.2961 3.56276 15.1953 3.41189C15.0945 3.26102 15.0406 3.08364 15.0406 2.90219C15.0408 2.65891 15.1375 2.42565 15.3095 2.25363C15.4815 2.08161 15.7148 1.9849 15.9581 1.98475ZM11.781 9.04919C11.782 9.19715 11.7473 9.34317 11.6797 9.47481C11.6121 9.60644 11.5137 9.71977 11.3929 9.80514C11.272 9.89051 11.1323 9.94538 10.9857 9.96508C10.839 9.98477 10.6898 9.9687 10.5507 9.91824C10.4116 9.86778 10.2867 9.78442 10.1868 9.67528C10.0869 9.56614 10.0149 9.43445 9.97689 9.29145C9.93888 9.14845 9.93603 8.99838 9.96857 8.85403C10.0011 8.70969 10.0681 8.57536 10.1638 8.4625L10.1711 8.45687C10.1711 8.4535 10.1745 8.449 10.1773 8.44619C10.2993 8.30496 10.4617 8.20454 10.6426 8.15844C10.8234 8.11234 11.0141 8.12279 11.1888 8.18837C11.3636 8.25396 11.514 8.37152 11.6199 8.52524C11.7258 8.67895 11.782 8.86142 11.781 9.04806V9.04919ZM6.44396 4.36975C6.62544 4.36964 6.80287 4.42335 6.95382 4.52409C7.10476 4.62483 7.22244 4.76808 7.29196 4.93571C7.36149 5.10334 7.37974 5.28782 7.3444 5.46583C7.30907 5.64383 7.22173 5.80735 7.09345 5.93571C6.96517 6.06408 6.80169 6.15151 6.62371 6.18696C6.44573 6.2224 6.26124 6.20426 6.09357 6.13484C5.92589 6.06542 5.78258 5.94783 5.68174 5.79695C5.58091 5.64606 5.52709 5.46866 5.52709 5.28719C5.52724 5.04401 5.62386 4.81083 5.79576 4.63882C5.96766 4.46682 6.20079 4.37005 6.44396 4.36975ZM2.04184 8.13175C2.22331 8.13164 2.40074 8.18535 2.55169 8.28609C2.70264 8.38683 2.82031 8.53008 2.88984 8.69771C2.95936 8.86534 2.97761 9.04982 2.94228 9.22783C2.90694 9.40583 2.81961 9.56935 2.69132 9.69771C2.56304 9.82608 2.39957 9.91351 2.22159 9.94896C2.04361 9.9844 1.85911 9.96626 1.69144 9.89684C1.52377 9.82742 1.38045 9.70983 1.27962 9.55895C1.17878 9.40806 1.12496 9.23066 1.12496 9.04919C1.12526 8.80606 1.22193 8.57296 1.3938 8.40099C1.56567 8.22902 1.7987 8.1322 2.04184 8.13175Z" fill="white"/>
  <path d="M17.4375 12.0153H0.5625C0.413316 12.0153 0.270242 12.0745 0.164752 12.18C0.0592632 12.2855 0 12.4286 0 12.5778C0 12.7269 0.0592632 12.87 0.164752 12.9755C0.270242 13.081 0.413316 13.1403 0.5625 13.1403H17.4375C17.5867 13.1403 17.7298 13.081 17.8352 12.9755C17.9407 12.87 18 12.7269 18 12.5778C18 12.4286 17.9407 12.2855 17.8352 12.18C17.7298 12.0745 17.5867 12.0153 17.4375 12.0153Z" fill="white"/>
</svg>
