<?xml version="1.0" encoding="iso-8859-1"?>
<svg width="50" height="50" viewBox="0 0 50 50" fill="none">
<path d="M45.625 9.875C45.625 9.21195 45.3616 8.57607 44.8927 8.10723C44.4239 7.63839 43.788 7.375 43.125 7.375C36.185 7.375 31.125 5.475 26.745 1.21C26.2776 0.751929 25.6493 0.495354 24.995 0.495354C24.3406 0.495354 23.7123 0.751929 23.245 1.21C18.86 5.475 13.805 7.375 6.86496 7.375C6.20192 7.375 5.56603 7.63839 5.09719 8.10723C4.62835 8.57607 4.36496 9.21195 4.36496 9.875C4.36496 11.035 4.36496 12.235 4.31996 13.51C4.08996 25.655 3.76996 42.29 24.175 49.36C24.7061 49.5444 25.2838 49.5444 25.815 49.36C46.22 42.29 45.9 25.655 45.67 13.5C45.645 12.235 45.625 11.035 45.625 9.875ZM37 35.185C34.6727 33.3371 32.1591 31.7368 29.5 30.41C29.482 30.4015 29.4668 30.388 29.4562 30.3712C29.4456 30.3544 29.4399 30.3349 29.44 30.315V27.815C29.7912 27.2183 30.0365 26.5653 30.165 25.885C30.555 25.76 30.905 25.135 31.235 23.965C31.535 22.9 31.54 22.21 31.235 21.855C31.1732 21.7817 31.0969 21.722 31.0108 21.6798C30.9247 21.6376 30.8307 21.6139 30.735 21.61C30.8017 21.3986 30.8552 21.1831 30.895 20.965C31.25 18.815 31.065 17.26 30.34 16.34C30.0634 15.9663 29.6597 15.7067 29.205 15.61C28.8309 15.0295 28.3146 14.5544 27.705 14.23C26.7557 13.6798 25.6557 13.4469 24.565 13.565C24.1358 13.5859 23.7117 13.6667 23.305 13.805C22.8408 13.9771 22.4019 14.2109 22 14.5C21.4849 14.8263 21.0129 15.216 20.595 15.66C19.8472 16.3949 19.3176 17.3225 19.065 18.34C18.8667 19.197 18.8667 20.088 19.065 20.945C19.1048 21.1631 19.1583 21.3785 19.225 21.59C19.1292 21.5939 19.0352 21.6176 18.9491 21.6598C18.8631 21.702 18.7867 21.7617 18.725 21.835C18.43 22.19 18.435 22.88 18.725 23.945C19.055 25.11 19.405 25.74 19.795 25.865C19.9225 26.5535 20.1678 27.2148 20.52 27.82V30.32C20.52 30.3399 20.5144 30.3594 20.5037 30.3762C20.4931 30.393 20.4779 30.4065 20.46 30.415C17.8008 31.7417 15.2872 33.342 12.96 35.19C9.00996 28.83 9.15996 20.92 9.29996 13.61C9.29996 13.165 9.29996 12.73 9.29996 12.3C15.555 11.905 20.62 10 25 6.36C29.38 10 34.445 11.905 40.645 12.3C40.645 12.73 40.645 13.165 40.645 13.61C40.81 20.915 40.955 28.825 37 35.185Z" fill="white"/>
</svg>
