<svg width="33" height="29" viewbox="0 0 33 29" xmlns="http://www.w3.org/2000/svg">
  <path d="M3.24002 0.849998C1.94768 0.849998 0.900024 1.89762 0.900024 3.19C0.900024 4.4823 1.94768 5.53 3.24002 5.53H29.76C31.0524 5.53 32.1 4.4823 32.1 3.19C32.1 1.89762 31.0524 0.849998 29.76 0.849998H3.24002ZM3.24002 12.16C1.94768 12.16 0.900024 13.2076 0.900024 14.5C0.900024 15.7923 1.94768 16.84 3.24002 16.84H29.76C31.0524 16.84 32.1 15.7923 32.1 14.5C32.1 13.2076 31.0524 12.16 29.76 12.16H3.24002ZM3.24002 23.47C1.94768 23.47 0.900024 24.5176 0.900024 25.81C0.900024 27.1023 1.94768 28.15 3.24002 28.15H29.76C31.0524 28.15 32.1 27.1023 32.1 25.81C32.1 24.5176 31.0524 23.47 29.76 23.47H3.24002Z"/>
</svg>
