<svg width="46" height="46" viewBox="0 0 46 46" fill="blue" xmlns="http://www.w3.org/2000/svg">
<path d="M22.6183 13.2515L23 13.7024L23.3817 13.2515C24.3283 12.133 25.414 11.0077 26.6153 10.1642C27.8158 9.32126 29.1027 8.78003 30.461 8.78003C35.4918 8.78003 38.6 13.1889 38.6 16.8022C38.6 20.7685 36.3403 24.6543 33.1752 28.2021C30.1125 31.635 26.2645 34.6826 23 37.0985C19.7355 34.6826 15.8875 31.635 12.8248 28.2021C9.6597 24.6543 7.39999 20.7685 7.39999 16.8022C7.39999 13.1889 10.5082 8.78003 15.539 8.78003C16.8973 8.78003 18.1841 9.32126 19.3847 10.1642C20.5859 11.0077 21.6717 12.133 22.6183 13.2515Z" stroke="#00AAAA"/>
</svg>

