<svg width="20" height="20" viewBox="0 0 22 22" fill="none" xmlns="http://www.w3.org/2000/svg"><path d="M13.172 8.68648L14.6317 10.1352C14.7712 10.2727 14.9951 10.272 15.1335 10.1339L16.5877 8.67966L18.0417 7.22546C18.976 6.2909 19.0084 4.78544 18.0654 3.84846L18.0459 3.82756C18.0421 3.8236 18.0384 3.82008 18.0346 3.81634C17.5995 3.38492 17.0449 3.1625 16.4806 3.1394C15.916 3.1163 15.3421 3.2461 14.8693 3.61196C13.9211 2.88508 12.5709 2.86 11.7039 3.74H11.6599V3.83328C10.7799 4.7729 10.7458 6.30146 11.6896 7.238L13.172 8.68648Z" fill="#969696"/><path d="M21.6816 12.9171C21.4634 12.4007 21.0324 12.164 20.6967 12.115C20.3612 12.0657 20.0853 12.1607 20.0853 12.1607C20.0726 12.1647 20.0596 12.1693 20.0473 12.1746L16.2558 13.9346C16.2604 13.8875 16.271 13.8301 16.271 13.7821C16.271 12.9824 15.6083 12.32 14.8055 12.32H11.6457C11.632 12.32 11.6166 12.274 11.6041 12.2514C11.5476 12.1493 11.4864 12.0569 11.4206 11.9612C11.2886 11.77 11.1386 11.5958 10.9729 11.4334C10.3096 10.7837 9.33523 10.3853 8.32455 10.3853L4.39997 10.3884V9.96578C4.39997 9.7691 4.35443 9.68 4.15775 9.68H2.37839H0.599031C0.402351 9.68 0.219971 9.7691 0.219971 9.96556V17.0834C0.219971 17.2803 0.402351 17.38 0.599031 17.38H2.37839H4.15775C4.35443 17.38 4.39997 17.2803 4.39997 17.0834V16.3827L11.6318 18.7642C11.6395 18.7669 11.6758 18.7689 11.684 18.7711C12.4476 18.9649 13.3406 18.8514 14.0127 18.4125L20.9321 14.656C20.9336 14.6546 20.9427 14.6531 20.944 14.6518L21.12 14.5559C21.12 14.5552 21.12 14.5548 21.12 14.5543C21.56 14.2298 21.9379 13.5236 21.6816 12.9171ZM20.7612 13.9363L20.5944 14.0307L13.6838 17.7857C13.6747 17.7907 13.6657 17.7965 13.6571 17.8024C13.1885 18.1172 12.4601 18.2222 11.8903 18.0792L4.50007 15.6446C4.48577 15.64 4.39997 15.6363 4.39997 15.6336V11.0986L8.32323 11.0972C9.14669 11.0972 9.91207 11.4213 10.4454 11.944C10.5787 12.0747 10.714 12.2173 10.8198 12.3706C10.8726 12.4474 10.9291 12.5266 10.9742 12.6084C11.0301 12.7094 11.0713 12.7323 11.1014 12.8025L11.1964 12.98H11.5093H14.8053C15.2317 12.98 15.5588 13.3426 15.5588 13.7548C15.5588 14.0556 15.3811 14.3268 15.121 14.4426L15.0878 14.4672C15.0007 14.5009 14.9285 14.5264 14.8267 14.5264C14.8267 14.5264 11.2198 14.5323 9.89975 14.5323C9.67975 14.5323 9.67975 15.1798 9.89975 15.1798C11.4398 15.1798 14.804 15.1798 14.804 15.1798C14.9474 15.1798 15.0838 15.1844 15.2154 15.1461C15.2627 15.1415 15.3085 15.1437 15.3503 15.1215L15.3599 15.1252C15.3734 15.1197 15.3857 15.1169 15.3989 15.1111L20.3163 12.8333C20.3196 12.8297 20.4402 12.7954 20.59 12.8176C20.7429 12.8401 20.8881 12.8823 21.0197 13.1936C21.1371 13.4706 21.0322 13.7821 20.7612 13.9363Z" fill="#969696"/></svg>