<svg width="20" height="20" viewBox="0 0 20 20" fill="none" xmlns="http://www.w3.org/2000/svg">
<path d="M8.17998 11.46C7.51998 11.92 6.61998 12.34 6.27998 12.34C6.11998 12.16 5.87998 11.68 5.73998 11.4C5.33998 10.62 5.03998 10.02 4.39998 9.87998L3.41998 9.65998C2.39998 9.39998 1.91998 9.29998 1.45998 9.69998C0.839981 10.24 0.47998 13.78 0.47998 15.74C0.47998 15.92 0.61998 16.04 0.79998 16.04C1.55998 16.04 3.27998 16.08 3.95998 16.08C4.11998 16.08 4.25998 15.96 4.27998 15.8L4.65998 12.98C4.93998 13.42 5.25998 13.78 5.67998 13.94C5.85998 14 6.03998 14.02 6.21998 14.02C7.33998 14.02 8.69998 13.14 9.13998 12.84C9.53998 12.56 9.61998 12.04 9.35998 11.64C9.09998 11.28 8.57998 11.18 8.17998 11.46Z" fill="#969696"/>
<path d="M5.74759 7.54284C5.98707 6.47589 5.31627 5.41681 4.24932 5.17733C3.18237 4.93785 2.1233 5.60865 1.88382 6.6756C1.64433 7.74255 2.31513 8.80162 3.38208 9.0411C4.44903 9.28058 5.50811 8.60979 5.74759 7.54284Z" fill="#969696"/>
<path d="M18.5199 9.69999C18.0599 9.29999 17.5799 9.37999 16.5599 9.65999L15.5799 9.87999C14.9599 10.02 14.6399 10.62 14.2399 11.4C14.0999 11.68 13.8399 12.18 13.6799 12.34C13.0999 12.5 11.9399 12.58 11.2999 12.58C10.8199 12.58 10.4399 12.98 10.4399 13.44C10.4399 13.92 10.8199 14.3 11.2999 14.3C11.4999 14.3 13.2999 14.28 14.2599 13.96C14.6999 13.82 15.0199 13.46 15.2799 13L15.6599 15.82C15.6799 15.98 15.8199 16.1 15.9799 16.1C16.6599 16.08 18.3799 16.06 19.1399 16.06C19.3199 16.06 19.4599 15.92 19.4599 15.76C19.5199 13.78 19.1399 10.24 18.5199 9.69999Z" fill="#969696"/>
<path d="M16.6142 9.05302C17.6811 8.81353 18.3519 7.75446 18.1125 6.68751C17.873 5.62056 16.8139 4.94976 15.747 5.18924C14.68 5.42873 14.0092 6.4878 14.2487 7.55475C14.4882 8.6217 15.5472 9.2925 16.6142 9.05302Z" fill="#969696"/>
<path d="M11.72 6.05999H10.52L11.18 4.35999C11.26 4.13999 11.1 3.89999 10.86 3.89999H9.26C9.12 3.89999 8.98 3.99999 8.94 4.13999L7.98 7.19999C7.92 7.41999 8.08 7.63999 8.3 7.63999H9.44L9.32 9.75999C9.3 10.08 9.72 10.22 9.9 9.93999L11.98 6.51999C12.1 6.31999 11.96 6.05999 11.72 6.05999Z" fill="#969696"/>
</svg>
