<svg width="20" height="20" viewBox="0 0 21 21" fill="none" xmlns="http://www.w3.org/2000/svg">
<g clip-path="url(#clip0)">
<path d="M8.72286 8.7629C8.86671 10.353 10.2057 11.6036 11.8325 11.6036H15.9194L17.7587 13.4432C17.8841 13.5685 18.0502 13.6349 18.2199 13.6349C18.3041 13.6349 18.389 13.6185 18.4702 13.5849C18.7151 13.4835 18.8734 13.2468 18.8734 12.9818V6.8057C18.8734 5.08307 17.4719 3.68174 15.7493 3.68174H12.8025C12.6116 2.19977 11.3445 1.05002 9.8115 1.05002H5.89521C4.23054 1.05002 2.87646 2.40431 2.87646 4.06877V10.2444C2.87646 10.4681 3.00981 10.6674 3.21624 10.752C3.28386 10.7797 3.35442 10.7932 3.42435 10.7932C3.56715 10.7932 3.7068 10.7369 3.81075 10.6317L5.68143 8.7629H8.72286ZM15.749 4.52048C17.0093 4.52048 18.0347 5.5457 18.0347 6.80591V12.533L16.4574 10.9557C16.3341 10.8327 16.1703 10.7648 15.9962 10.7648H11.8325C10.5723 10.7648 9.54711 9.73961 9.54711 8.4794V6.8057C9.54711 5.54549 10.5723 4.52027 11.8325 4.52027H15.749V4.52048ZM5.26101 8.29376L3.50542 10.0475V4.06877C3.50542 2.75102 4.57746 1.67897 5.89521 1.67897H9.8115C10.9972 1.67897 11.9812 2.54774 12.1671 3.68174H11.8325C11.6272 3.68174 11.4266 3.70295 11.2322 3.74096C10.0415 3.97385 9.09372 4.88567 8.8035 6.05516C8.74387 6.29603 8.70858 6.54656 8.70858 6.8057V8.13374H5.64804C5.50104 8.13395 5.36328 8.19086 5.26101 8.29376Z" fill="#969696"/>
<path d="M3.83116 13.8619C2.89771 13.8619 2.14087 14.6187 2.14087 15.5522C2.14087 16.4856 2.89771 17.2425 3.83116 17.2425C4.59262 17.2425 5.23627 16.7387 5.44774 16.0463C5.49541 15.8901 5.52145 15.7242 5.52145 15.5522C5.52145 14.9453 5.20057 14.4146 4.72009 14.1164C4.46179 13.9562 4.15792 13.8619 3.83116 13.8619ZM5.10229 15.5522C5.10229 16.2529 4.53214 16.8231 3.83137 16.8231C3.1306 16.8231 2.56045 16.2529 2.56045 15.5522C2.56045 14.8514 3.1306 14.2812 3.83137 14.2812C4.53214 14.2812 5.10229 14.8514 5.10229 15.5522Z" fill="#969696"/>
<path d="M1.62494 19.95C1.62494 19.0947 2.32088 18.399 3.176 18.399H4.48661C5.34194 18.399 6.03766 19.0947 6.03766 19.95H6.45704C6.45704 18.8635 5.57315 17.9796 4.48661 17.9796H3.176C2.08946 17.9796 1.20557 18.8637 1.20557 19.95H1.62494Z" fill="#969696"/>
<path d="M10.9729 13.9303C10.8228 13.8867 10.6642 13.8619 10.5 13.8619C10.3358 13.8619 10.1772 13.8864 10.0271 13.9303C9.32398 14.1351 8.80969 14.7831 8.80969 15.5522C8.80969 15.7242 8.83573 15.8898 8.8834 16.0463C9.09487 16.7387 9.73831 17.2425 10.5 17.2425C11.2617 17.2425 11.9051 16.7387 12.1166 16.0463C12.1642 15.8901 12.1903 15.7242 12.1903 15.5522C12.1903 14.7831 11.676 14.1351 10.9729 13.9303Z" fill="#969696"/>
<path d="M8.29352 19.95H12.7062H13.1256C13.1256 18.8635 12.2417 17.9796 11.1552 17.9796H9.84458C8.75804 17.9796 7.87415 18.8637 7.87415 19.95H8.29352Z" fill="#969696"/>
<path d="M17.1686 13.8619C16.842 13.8619 16.5381 13.956 16.2796 14.1164C15.7992 14.4146 15.4783 14.9451 15.4783 15.5522C15.4783 15.7242 15.5043 15.8898 15.552 16.0463C15.7635 16.7387 16.4069 17.2425 17.1686 17.2425C18.102 17.2425 18.8589 16.4856 18.8589 15.5522C18.8589 14.6187 18.102 13.8619 17.1686 13.8619ZM17.1686 16.8233C16.4678 16.8233 15.8976 16.2531 15.8976 15.5524C15.8976 14.8516 16.4678 14.2815 17.1686 14.2815C17.8693 14.2815 18.4395 14.8516 18.4395 15.5524C18.4395 16.2531 17.8693 16.8233 17.1686 16.8233Z" fill="#969696"/>
<path d="M17.8239 17.9796H16.5133C15.4267 17.9796 14.5428 18.8637 14.5428 19.95H14.9622C14.9622 19.0947 15.6582 18.399 16.5133 18.399H17.8239C18.6792 18.399 19.3749 19.0947 19.3749 19.95H19.7943C19.7943 18.8635 18.9104 17.9796 17.8239 17.9796Z" fill="#969696"/>
</g>
<defs>
<clipPath id="clip0">
<rect width="20" height="20" fill="white"/>
</clipPath>
</defs>
</svg>
