<svg width="20" height="20" viewBox="0 0 23 23" fill="none" xmlns="http://www.w3.org/2000/svg">
<path d="M13.4078 1.17646C13.7645 1.17282 14.1265 1.19829 14.4915 1.25367C18.1191 1.80401 20.5818 5.13995 20.0464 8.75562L16.8878 15.6525C16.862 15.7092 16.8514 15.7716 16.8569 15.8336L17.1658 19.4063H16.5032L15.7521 10.0626H16.1719C16.36 10.0625 16.5312 9.89135 16.5312 9.70319V8.26569C16.5312 8.07753 16.36 7.90634 16.1719 7.90632H15.4531V5.5409L15.7325 5.82026C15.9965 6.09527 16.5157 5.57612 16.2407 5.31208L13.1916 2.2616C13.1238 2.19373 13.0278 2.15485 12.9319 2.15632C12.8397 2.15779 12.7486 2.19638 12.6834 2.2616L9.63434 5.31208C9.35932 5.57612 9.87847 6.09527 10.1425 5.82026L10.4219 5.5409V7.90632H9.70312C9.51496 7.90634 9.34377 8.07753 9.34375 8.26569V9.70319C9.34377 9.89135 9.51496 10.0625 9.70312 10.0626H10.1229L9.37183 19.4063H9.28198L8.8833 15.9164C8.86195 15.7357 8.70879 15.5994 8.52673 15.5992H5.70227V11.9732C5.70225 11.7747 5.54136 11.6138 5.3429 11.6138H4.53711L5.95917 8.7865V8.78507L9.34375 7.43183V6.46882V5.50721L7.58197 4.8025C8.67898 2.62722 10.9109 1.20189 13.4078 1.17646ZM12.9375 3.02387L14.9435 5.03132H10.9315L12.9375 3.02387ZM2.15625 3.40571L8.625 5.99433V6.46882V6.94471L2.15625 9.53333V3.40571ZM11.1406 5.75007H14.7344V7.90632H13.2969V6.46882H12.5781V7.90632H11.1406V5.75007ZM10.0625 8.62507H15.8125V9.34382H10.0625V8.62507ZM10.8528 10.0626H14.9323L10.8079 10.9231L10.8528 10.0626ZM15.0881 10.7645L15.1302 11.2797L10.6703 12.209L10.7139 11.6769L15.0881 10.7645ZM15.1415 12.0125L15.2131 12.8969L10.5847 13.8613L10.6577 12.946L15.1415 12.0125ZM15.317 13.61L15.3591 14.1238L10.4345 15.15L10.4766 14.6179L15.317 13.61ZM15.3703 14.8552L15.4321 15.6188L10.3587 16.6773L10.4219 15.887L15.3703 14.8552ZM15.536 16.3306L15.5767 16.8472L10.2071 17.966L10.2506 17.434L15.536 16.3306ZM15.5963 17.5772L15.7746 19.4063H10.106L10.186 18.7058L15.5963 17.5772ZM8.625 20.1251H17.25V20.8438H8.625V20.1251Z" fill="#969696"/>
</svg>
