<svg width="20" height="20" viewBox="0 0 22 22" fill="none" xmlns="http://www.w3.org/2000/svg">
<path d="M5.9813 5.22499C7.36719 5.22499 8.49067 4.1015 8.49067 2.71561C8.49067 1.32972 7.36719 0.206238 5.9813 0.206238C4.59541 0.206238 3.47192 1.32972 3.47192 2.71561C3.47192 4.1015 4.59541 5.22499 5.9813 5.22499Z" fill="#969696"/>
<path d="M5.98125 5.60309C2.68125 5.60309 0 8.76559 0 12.6843C0 13.2687 0.48125 13.75 1.06562 13.75C1.65 13.75 2.13125 13.2687 2.13125 12.6843C2.13125 11.4125 2.50938 10.2781 3.09375 9.38434V20.6937C3.09375 21.3125 3.575 21.7937 4.19375 21.7937C4.8125 21.7937 5.29375 21.3125 5.29375 20.6937V16.775C5.29375 16.3625 5.6375 16.0187 6.05 16.0187C6.4625 16.0187 6.80625 16.3625 6.80625 16.775V20.6937C6.80625 21.3125 7.2875 21.7937 7.90625 21.7937C8.525 21.7937 9.00625 21.3125 9.00625 20.6937V9.65934C9.4875 10.4843 9.79688 11.55 9.79688 12.6843C9.79688 13.2687 10.2781 13.75 10.8625 13.75C11.4469 13.75 11.9281 13.2687 11.9281 12.6843C11.9625 8.76559 9.28125 5.60309 5.98125 5.60309Z" fill="#969696"/>
<path d="M19.8343 19.2156H17.3937C17.325 19.2156 17.2562 19.2844 17.2562 19.3531V20.0063C17.2562 20.075 17.325 20.1438 17.3937 20.1438H19.8343C19.9031 20.1438 19.9718 20.075 19.9718 20.0063V19.3531C20.0062 19.2844 19.9375 19.2156 19.8343 19.2156Z" fill="#969696"/>
<path d="M19.8343 20.4875H17.3937C17.325 20.4875 17.2562 20.5562 17.2562 20.625V21.4844C17.2562 21.5531 17.325 21.6219 17.3937 21.6219H19.8343C19.9031 21.6219 19.9718 21.5531 19.9718 21.4844V20.625C20.0062 20.5562 19.9375 20.4875 19.8343 20.4875Z" fill="#969696"/>
<path d="M21.9656 8.18124L18.8718 3.19686C18.7343 2.99061 18.4593 2.99061 18.3562 3.19686L17.325 4.88124L18.0468 6.04999C18.1843 6.25624 18.1843 6.53124 18.0468 6.77186C17.9093 6.97811 17.7031 7.11561 17.4281 7.11561H16.1218V8.69686H17.2218V18.6656C17.2218 18.7344 17.2906 18.8031 17.3593 18.8031H19.8C19.8687 18.8031 19.9375 18.7344 19.9375 18.6656V8.69686H21.6218C21.9312 8.66249 22.0687 8.38749 21.9656 8.18124Z" fill="#969696"/>
<path d="M15.6062 15.2625H13.1656C13.0968 15.2625 13.0281 15.3313 13.0281 15.4V16.0531C13.0281 16.1219 13.0968 16.1906 13.1656 16.1906H15.6062C15.675 16.1906 15.7437 16.1219 15.7437 16.0531V15.4C15.7437 15.3313 15.675 15.2625 15.6062 15.2625Z" fill="#969696"/>
<path d="M15.6062 16.5344H13.1656C13.0968 16.5344 13.0281 16.6031 13.0281 16.6719V17.5312C13.0281 17.6 13.0968 17.6687 13.1656 17.6687H15.6062C15.675 17.6687 15.7437 17.6 15.7437 17.5312V16.6719C15.7437 16.6031 15.675 16.5344 15.6062 16.5344Z" fill="#969696"/>
<path d="M17.7031 6.22187L14.6437 1.20312C14.5062 1.03125 14.2312 1.03125 14.0937 1.20312L11.0344 6.1875C10.8969 6.39375 11.0687 6.66875 11.3094 6.66875H12.9937V14.6781C12.9937 14.7469 13.0625 14.8156 13.1312 14.8156H15.5719C15.6406 14.8156 15.7094 14.7469 15.7094 14.6781V6.70312H17.3937C17.6687 6.70312 17.8406 6.42812 17.7031 6.22187Z" fill="#969696"/>
</svg>
