<svg width="20" height="20" viewBox="0 0 25 25" fill="none" xmlns="http://www.w3.org/2000/svg">
<path fill-rule="evenodd" clip-rule="evenodd" d="M2.09265 23.7484V22.8167H5.02965V16.2684H2.09298L12.2503 6.30535L22.4073 16.2684H19.47V22.8167H22.0663V23.7484H16.4377C16.439 23.7334 16.4397 23.7177 16.4397 23.702V19.3177L16.7433 20.26C16.801 20.4367 16.9913 20.5754 17.177 20.5754H17.4517C17.5543 20.5754 17.644 20.533 17.6993 20.458C17.754 20.383 17.7663 20.2827 17.7353 20.1854L16.668 17.374C16.6103 17.1964 16.4203 17.058 16.234 17.058H13.8697C13.6833 17.058 13.4937 17.1964 13.4363 17.374L12.9633 18.5787L11.998 15.2664C11.9323 15.0634 11.7153 14.906 11.5027 14.906H8.80499C8.59265 14.906 8.37532 15.0634 8.31099 15.2664L7.39232 18.11L7.00432 19.3274L7.72999 19.4837C7.94099 19.4837 8.15798 19.3254 8.22365 19.1237L8.56998 18.0494V23.6164C8.56998 23.6617 8.57432 23.7057 8.58232 23.7484H2.09265ZM10.0057 23.6164V19.986H10.3017V23.6164C10.3017 23.6617 10.3057 23.7057 10.314 23.7484H9.99298C10.0013 23.7057 10.0057 23.6617 10.0057 23.6164ZM11.7373 23.6164V18.0494L12.2747 20.1804C12.2953 20.244 12.331 20.303 12.3767 20.354C12.4143 20.438 12.4903 20.5124 12.6107 20.5754C12.6187 20.5754 12.624 20.571 12.6313 20.5704C12.6393 20.571 12.645 20.5754 12.6527 20.5754H12.9267C12.9827 20.5754 13.0397 20.5627 13.093 20.54C13.2057 20.537 13.3037 20.489 13.3647 20.406C13.4253 20.3237 13.4403 20.215 13.409 20.107L13.6637 19.3177V23.702C13.6637 23.7177 13.664 23.7334 13.6653 23.7484H11.7247C11.7327 23.7057 11.7373 23.6617 11.7373 23.6164ZM14.9213 23.702V20.768H15.181V23.702C15.181 23.7177 15.1813 23.7334 15.1827 23.7484H14.9193C14.9207 23.7334 14.9213 23.7177 14.9213 23.702ZM16.3697 15.4317C16.3697 14.7057 15.7787 14.115 15.0517 14.115C14.3253 14.115 13.7343 14.7057 13.7343 15.4317C13.7343 16.158 14.3253 16.7494 15.0517 16.7494C15.7787 16.7494 16.3697 16.158 16.3697 15.4317ZM11.6577 13.0507C11.6577 12.2217 10.9833 11.5477 10.154 11.5477C9.32499 11.5477 8.65032 12.2217 8.65032 13.0507C8.65032 13.879 9.32499 14.553 10.154 14.553C10.9833 14.553 11.6577 13.879 11.6577 13.0507ZM18.33 9.76669V8.08435H18.9703V9.76669H18.33ZM21.4337 8.74635L20.2447 7.55635L20.6977 7.10335L21.8867 8.29335L21.4337 8.74635ZM15.8657 8.74602L15.413 8.29335L16.6027 7.10335L17.0553 7.55602L15.8657 8.74602ZM16.584 5.50935C16.584 4.36902 17.5097 3.44335 18.65 3.44335C19.7903 3.44335 20.716 4.36902 20.716 5.50935C20.716 6.64968 19.7903 7.57535 18.65 7.57535C17.5097 7.57535 16.584 6.64968 16.584 5.50935ZM14.3923 5.82935V5.18902H16.0747V5.82935H14.3923ZM21.2253 5.82935V5.18902H22.9077V5.82935H21.2253ZM16.6027 3.91435L15.413 2.72469L15.8657 2.27202L17.0553 3.46135L16.6027 3.91435ZM20.6973 3.91435L20.2443 3.46135L21.4343 2.27235L21.8873 2.72535L20.6973 3.91435ZM18.33 2.93335V1.25135H18.9703V2.93335H18.33Z" fill="#969696"/>
</svg>
