<svg width="20" height="20" viewBox="0 0 23 23" fill="none" xmlns="http://www.w3.org/2000/svg"><path d="M18.3811 5.40592H21.7561C22.1911 5.40592 22.5427 5.75736 22.5427 6.19229V18.5835C22.5427 19.0185 22.1911 19.3701 21.7561 19.3701H18.3811V5.40592Z" fill="#969696"/><path d="M5.00708 5.40592H1.63206C1.1969 5.40592 0.845459 5.75736 0.845459 6.19229V18.5835C0.845459 19.0185 1.1969 19.3701 1.63206 19.3701H5.00708V5.40592Z" fill="#969696"/><path d="M14.7349 3.72991H8.65344V4.62921H14.7349V3.72991Z" fill="#969696"/><path d="M5.82471 5.40592H17.5637V19.3701H5.82471V5.40592ZM11.2844 15.7861C11.9172 16.0901 12.6631 16.0443 13.2532 15.6635C14.0723 16.0278 15.0321 15.6598 15.3968 14.8391C15.4884 14.6347 15.5358 14.4141 15.5374 14.1919C15.5422 13.2876 15.9183 12.4255 16.5756 11.8043C15.1988 11.6019 13.8039 12.0433 12.7953 13.0014C12.2231 13.5429 12.1233 14.4173 12.5563 15.0733C13.0994 14.9636 13.5541 14.5958 13.7765 14.0887C13.7618 14.2917 13.7091 14.4893 13.6192 14.6708C13.2302 15.4785 12.259 15.8155 11.4512 15.4263C11.657 14.8932 11.7079 14.3145 11.5984 13.7535C12.5566 12.8165 12.5745 11.2797 11.6373 10.3199C11.4038 10.0811 11.1223 9.89322 10.815 9.76879C9.56083 9.26026 8.57137 8.26298 8.06951 7.00718C7.02968 8.809 6.8742 10.9889 7.64585 12.92C8.084 14.0139 9.24159 14.6351 10.3943 14.3966C10.5383 13.5808 10.28 12.7448 9.69952 12.1564C10.2982 12.4488 10.7495 12.9757 10.9473 13.6114C11.3495 14.8904 10.6352 16.2507 9.35636 16.6532C9.19927 16.7021 9.11256 16.8675 9.16178 17.026C9.21077 17.1815 9.37752 17.2696 9.53438 17.2206C10.2805 16.986 10.9084 16.4724 11.2844 15.7861Z" fill="#969696"/></svg>