<svg width="20" height="20" viewBox="0 0 23 23" fill="none" xmlns="http://www.w3.org/2000/svg">
<path d="M20.4681 15.9733L13.0573 8.56175L15.2779 6.34133C15.8092 5.80934 15.8092 4.94339 15.2782 4.41094L15.2775 4.41025L11.9724 1.10446C11.4404 0.572467 10.5738 0.572007 10.0404 1.10446L2.23326 8.91089C1.70242 9.44403 1.70288 10.3102 2.23441 10.842L5.53951 14.1464C5.7978 14.4051 6.14096 14.5473 6.50597 14.5473H6.50735C6.87236 14.547 7.21506 14.4042 7.47128 14.1466L9.69147 11.9269L10.4341 12.6695C8.54676 13.3747 7.19896 15.1956 7.19896 17.3261C7.19896 20.0663 9.42812 22.2955 12.1681 22.2955C14.2988 22.2955 16.12 20.9475 16.8249 19.0599L17.103 19.3377C17.552 19.7874 18.1495 20.0348 18.7852 20.0351C18.7852 20.0351 18.7852 20.0351 18.7854 20.0351C19.4212 20.0351 20.0185 19.7874 20.4674 19.3382C20.9178 18.8885 21.1655 18.2903 21.1655 17.6543C21.1653 17.0188 20.9175 16.4215 20.4681 15.9733ZM6.5154 13.1712L3.21007 9.88562L10.9967 2.08012L14.2919 5.37602L6.5154 13.1712ZM12.1681 20.9157C10.1892 20.9157 8.57896 19.3055 8.57896 17.3264C8.57896 15.3474 10.1892 13.7372 12.1681 13.7372C14.1473 13.7372 15.7575 15.3474 15.7575 17.3264C15.7577 19.3055 14.1475 20.9157 12.1681 20.9157ZM19.4918 18.3625C19.3032 18.5511 19.0525 18.6551 18.7857 18.6551H18.7854C18.5186 18.6548 18.2679 18.5511 18.0793 18.362L17.1354 17.4184C17.1359 17.3875 17.1377 17.3569 17.1377 17.3261C17.1377 14.5861 14.9086 12.357 12.1683 12.357C12.1373 12.357 12.1065 12.3588 12.0757 12.3593L10.6678 10.9514L12.0816 9.53787L19.4932 16.9498C19.6818 17.1382 19.7855 17.3887 19.7857 17.655C19.7855 17.9218 19.6813 18.173 19.4918 18.3625ZM13.9295 16.6361H12.71V14.8677C12.71 14.4865 12.4011 14.1777 12.02 14.1777C11.6389 14.1777 11.33 14.4865 11.33 14.8677V17.3261C11.33 17.7072 11.6389 18.0161 12.02 18.0161H13.9295C14.3106 18.0161 14.6195 17.7072 14.6195 17.3261C14.6195 16.945 14.3106 16.6361 13.9295 16.6361Z" fill="#969696"/>
</svg>
