<svg width="20" height="20" viewBox="0 0 29 29" fill="none" xmlns="http://www.w3.org/2000/svg">
<path fill-rule="evenodd" clip-rule="evenodd" d="M14.7142 2.70816C14.5959 2.70957 14.4828 2.75722 14.3991 2.84091L13.438 3.80203C12.9932 4.22911 13.6517 4.88759 14.0788 4.44278L14.2664 4.25516V6.33316H15.1726V4.25516L15.3603 4.44278C15.7874 4.87961 16.4384 4.23037 16.0028 3.80203L15.0399 2.84091C14.9536 2.75462 14.8362 2.70676 14.7142 2.70816ZM8.95279 5.09769C8.75353 5.09752 8.57753 5.22754 8.51914 5.41806H8.52268L8.49967 5.73843V6.91019C8.491 7.52297 9.4146 7.52297 9.40592 6.91019V6.64468L10.875 8.1138L11.5158 7.47305L10.0467 6.00394H10.3122C10.9249 6.0126 10.9249 5.08902 10.3122 5.09769H8.95279ZM19.0826 5.09769C18.4785 5.12837 18.5245 6.03462 19.1286 6.00394H19.3941L17.925 7.47305L18.5658 8.1138L20.0349 6.64468V6.91019C20.0262 7.52296 20.9498 7.52296 20.9411 6.91019V5.55081C20.9411 5.30057 20.7383 5.09771 20.488 5.09769H19.1286C19.1133 5.09691 19.098 5.09691 19.0826 5.09769ZM14.7195 7.22879C12.4828 7.22879 10.6627 9.06141 10.6626 11.3069C10.6627 13.5523 12.4828 15.385 14.7195 15.385C16.9563 15.385 18.7782 13.5523 18.7782 11.3069C18.7782 9.06141 16.9563 7.22879 14.7195 7.22879ZM14.7195 8.13504C16.4637 8.13504 17.8719 9.54843 17.8719 11.3069C17.8719 13.0654 16.4637 14.4788 14.7195 14.4788C12.9754 14.4788 11.5689 13.0654 11.5689 11.3069C11.5689 9.54843 12.9754 8.13504 14.7195 8.13504ZM7.51554 9.89975C7.39794 9.90301 7.28623 9.95189 7.20401 10.036L6.24289 10.9972C6.06601 11.1741 6.06601 11.4609 6.24289 11.6379L7.20401 12.599C7.63117 13.0191 8.26538 12.3866 7.84653 11.9583L7.65891 11.7707H9.73514V10.8644H7.65891L7.84653 10.6768C8.14202 10.388 7.92851 9.88676 7.51554 9.89975ZM21.9111 9.89975C21.5051 9.89987 21.3041 10.3928 21.5943 10.6768L21.7819 10.8644H19.7039V11.7707H21.7819L21.5943 11.9583C21.1495 12.3854 21.8079 13.0438 22.235 12.599L23.1961 11.6379C23.373 11.4609 23.373 11.1741 23.1961 10.9972L22.235 10.036C22.1498 9.94889 22.033 9.89976 21.9111 9.89975ZM12.6008 16.2913C9.61603 16.2913 7.20047 18.7182 7.20047 21.7129V24.9042C7.2005 25.1544 7.40336 25.3573 7.6536 25.3573H10.4626C10.5453 25.3814 10.6331 25.3814 10.7157 25.3573H18.6189C18.7015 25.3814 18.7893 25.3814 18.872 25.3573H21.7872C22.0375 25.3573 22.2403 25.1544 22.2403 24.9042V21.7129C22.2403 18.7182 19.8248 16.2913 16.84 16.2913H12.6008ZM12.6008 17.1975H13.5053L13.1725 22.0315C13.1636 22.1672 13.2163 22.2998 13.3159 22.3925L14.4098 23.4192C14.584 23.5823 14.855 23.5823 15.0293 23.4192L16.1249 22.3925C16.2245 22.2998 16.2771 22.1672 16.2683 22.0315L15.9355 17.1975H16.84C19.3362 17.1975 21.3341 19.2025 21.3341 21.7129V24.4511H19.1994V22.1819C19.2034 21.9261 18.995 21.7177 18.7392 21.7217C18.489 21.7256 18.2893 21.9317 18.2932 22.1819V24.4511H11.0432V22.1819C11.0472 21.9261 10.8388 21.7177 10.583 21.7217C10.3327 21.7256 10.133 21.9317 10.1369 22.1819V24.4511H8.10672V21.7129C8.10672 19.2025 10.1046 17.1975 12.6008 17.1975ZM14.4133 17.1975H15.0275L15.3496 21.8775L14.7195 22.4669L14.0912 21.8775L14.4133 17.1975Z" fill="#969696"/>
</svg>
