<svg width="20" height="20" viewBox="0 0 25 25" fill="none" xmlns="http://www.w3.org/2000/svg">
<path d="M23.0855 18.7182C23.0855 18.7182 22.6086 17.1832 21.1373 15.0773C21.6441 15.2932 22.0714 15.4482 22.0714 15.4482C21.4227 14.0555 19.8796 12.7777 18.8859 12.0577C19.1991 12.1414 19.6618 12.2255 20.2514 12.2255C20.2514 12.2255 18.6177 10.8132 17.255 9.43409C16.2818 8.44954 14.155 6.5709 12.565 5.95318C12.565 5.95318 12.6132 6.83636 12.9423 7.63181C12.9423 7.63181 11.3973 4.35409 10.5991 4.355C10.5 4.355 10.3496 5.08454 10.1109 5.93272C9.8741 5.38045 9.53046 4.90909 9.03546 4.82318C8.81546 4.785 9.09228 6.52954 9.0341 7.97681C8.22728 8.20681 6.04364 8.96045 5.56546 10.49C4.97682 12.3755 3.56319 12.3755 2.38501 12.6109C1.20637 12.8464 2.58501 14.9618 2.82046 15.7864C3.05546 16.6109 8.32001 16.0795 9.77046 17.1995C11.3577 18.4255 11.7841 19.4359 12.1809 20.6441H22.7432C22.7432 20.6441 22.3055 18.9209 21.7232 18.145C21.7232 18.1455 22.2177 18.3086 23.0855 18.7182ZM7.60182 11.9059C7.23637 11.9059 6.94001 11.6095 6.94001 11.2436C6.94001 10.8786 7.23637 10.5823 7.60182 10.5823C7.96728 10.5823 8.26364 10.8786 8.26364 11.2436C8.26364 11.6095 7.96728 11.9059 7.60182 11.9059Z" fill="#4E4E4E"/>
</svg>
