<svg width="20" height="20" viewBox="0 0 25 25" fill="none" xmlns="http://www.w3.org/2000/svg">
<path d="M16.3283 11.804V9.71576L16.312 9.69451C16.3208 9.58651 16.3283 9.47801 16.3283 9.36776C16.3283 7.49101 14.9778 5.93326 13.196 5.60551V4.14726H14.2403V2.75501H13.196V1.36276H11.804V2.75501H10.7598V4.14701H11.804V5.60526C10.0225 5.93276 8.67175 7.49076 8.67175 9.36751C8.67175 9.47776 8.679 9.58626 8.688 9.69426L8.67175 9.71551V11.8038L4.147 15.2843V23.6373H8.6715H10.0635V18.7648C10.0635 17.8035 11.1543 17.0245 12.4998 17.0245C13.8455 17.0245 14.936 17.8035 14.936 18.7648V23.6373H16.328H20.8525V15.2843L16.3283 11.804Z" fill="#4E4E4E"/>
</svg>
