<svg width="20" height="20" viewBox="0 0 25 25" fill="none" xmlns="http://www.w3.org/2000/svg">
<path d="M11.8704 18.1618C12.8388 18.1618 13.6239 17.3767 13.6239 16.4083C13.6239 15.4398 12.8388 14.6548 11.8704 14.6548C10.9019 14.6548 10.1169 15.4398 10.1169 16.4083C10.1169 17.3767 10.9019 18.1618 11.8704 18.1618Z" fill="#4E4E4E"/>
<path d="M16.7465 15.0067H15.571C15.5415 14.9311 15.5119 14.8551 15.4782 14.7811L16.3079 13.9505C16.577 13.6837 16.577 13.248 16.3079 12.979L15.3 11.97C15.0308 11.7008 14.5962 11.7008 14.3271 11.97L13.4965 12.8007C13.4226 12.7671 13.3478 12.7364 13.2709 12.7082V11.5314C13.2709 11.1528 12.9635 10.8457 12.5843 10.8457H11.1561C10.7767 10.8457 10.4693 11.1528 10.4693 11.5314V12.7081C10.3933 12.7369 10.3183 12.7671 10.2437 12.8006L9.41309 11.97C9.14512 11.7008 8.71031 11.7008 8.4414 11.97L7.43227 12.979C7.16436 13.248 7.16436 13.6836 7.43227 13.9505L8.26317 14.7811C8.22954 14.8551 8.1989 14.9309 8.17032 15.0067H6.99369C6.61528 15.0067 6.30769 15.3144 6.30769 15.6946V17.1215C6.30769 17.5018 6.61533 17.8095 6.99369 17.8095H8.17032C8.1989 17.8855 8.22954 17.9612 8.26205 18.0341L7.43133 18.8656C7.16348 19.1329 7.16348 19.5682 7.43227 19.8375L8.4414 20.8465C8.71031 21.1158 9.14401 21.1158 9.41309 20.8465L10.2437 20.0166C10.3178 20.0492 10.3935 20.0797 10.4693 20.1084V21.2849C10.4693 21.6638 10.7769 21.9708 11.1562 21.9708H12.584C12.9635 21.9708 13.2709 21.6638 13.2709 21.2849V20.1084C13.3478 20.0801 13.4226 20.0492 13.4976 20.0166L14.3282 20.8465C14.5962 21.1158 15.0308 21.1158 15.3 20.8465L16.3079 19.8375C16.5779 19.5682 16.5779 19.1339 16.3079 18.8656L15.4782 18.0341C15.5119 17.9612 15.5413 17.8852 15.571 17.8095H16.7465C17.126 17.8095 17.4333 17.5021 17.4333 17.1215V15.6946C17.4333 15.3145 17.126 15.0067 16.7465 15.0067ZM11.8704 19.4102C10.2126 19.4102 8.86847 18.0662 8.86847 16.4084C8.86847 14.7502 10.2126 13.4062 11.8704 13.4062C13.5284 13.4062 14.8723 14.7502 14.8723 16.4084C14.8723 18.0662 13.5284 19.4102 11.8704 19.4102Z" fill="#4E4E4E"/>
<path d="M11.8704 7.79476C12.5252 7.79476 13.0561 7.26392 13.0561 6.6091C13.0561 5.95427 12.5252 5.42343 11.8704 5.42343C11.2156 5.42343 10.6847 5.95427 10.6847 6.6091C10.6847 7.26392 11.2156 7.79476 11.8704 7.79476Z" fill="#4E4E4E"/>
<path d="M8.57298 7.55656H9.36849C9.38786 7.60802 9.40864 7.65914 9.43053 7.70844L8.86889 8.27067C8.68778 8.45137 8.68778 8.74574 8.86959 8.92779L9.55172 9.61015C9.73371 9.79203 10.0268 9.79203 10.2089 9.61015L10.7705 9.04898C10.8207 9.07093 10.8717 9.09171 10.9231 9.11102V9.90659C10.9231 10.1627 11.131 10.3703 11.3875 10.3703H12.3531C12.6095 10.3703 12.8174 10.1627 12.8174 9.90659V9.11102C12.8694 9.09182 12.92 9.07093 12.9707 9.04898L13.5323 9.61015C13.7134 9.79203 14.0075 9.79203 14.1893 9.61015L14.8709 8.92779C15.0534 8.74574 15.0534 8.45213 14.8709 8.27067L14.3098 7.70844C14.3326 7.65914 14.3525 7.60773 14.3727 7.55656H15.1674C15.4239 7.55656 15.6319 7.34868 15.6319 7.09134V6.12657C15.6319 5.86946 15.4239 5.66141 15.1674 5.66141H14.3727C14.3529 5.61024 14.3326 5.55889 14.3098 5.50889L14.8709 4.94724C15.053 4.76678 15.053 4.47217 14.8709 4.29035L14.1893 3.60811C14.0075 3.42612 13.7134 3.42612 13.5316 3.60811L12.97 4.16981C12.92 4.14716 12.8694 4.12632 12.8174 4.10719V3.3115C12.8174 3.05557 12.6095 2.84787 12.3532 2.84787H11.3875C11.1308 2.84787 10.9231 3.05557 10.9231 3.3115V4.10719C10.8717 4.1265 10.8209 4.1471 10.7704 4.16969L10.2089 3.60811C10.0276 3.42612 9.73371 3.42612 9.55172 3.60811L8.86959 4.29035C8.6883 4.47217 8.6883 4.76678 8.86959 4.94713L9.43135 5.50889C9.40864 5.55889 9.38786 5.61024 9.36849 5.66136H8.57298C8.31705 5.66136 8.10912 5.86934 8.10912 6.12657V7.09134C8.10912 7.34845 8.31705 7.55656 8.57298 7.55656ZM11.8704 4.57921C12.9915 4.57921 13.9003 5.48805 13.9003 6.60904C13.9003 7.73009 12.9915 8.63887 11.8704 8.63887C10.7494 8.63887 9.84064 7.73009 9.84064 6.60904C9.84064 5.48805 10.7494 4.57921 11.8704 4.57921Z" fill="#4E4E4E"/>
</svg>
