<svg width="20" height="20" viewBox="0 0 25 25" fill="none" xmlns="http://www.w3.org/2000/svg">
<path fill-rule="evenodd" clip-rule="evenodd" d="M22.4325 3.47375C22.0288 3.22475 21.603 3.42775 21.2593 3.6835C21.12 3.78725 21.001 3.918 20.878 4.0425C20.5597 4.36725 20.2582 4.70975 19.9252 5.019C19.1245 5.76425 18.2085 6.34975 17.189 6.74925C15.2577 7.5065 13.173 7.67975 11.1538 8.082C10.3438 8.24325 9.55025 8.46725 8.807 8.84275C8.66725 8.9135 8.5885 8.967 8.7695 9.077C9.98975 9.364 11.218 9.59625 12.4762 9.63325C12.7642 9.64175 12.9713 9.7645 13.0363 10.079C13.1905 10.8275 13.2422 11.62 13.2525 12.3827C13.2598 12.8877 13.189 14.0967 13.189 14.0967C13.252 14.082 13.3472 14.0487 13.4657 14.0227C14.1167 13.881 15.1045 14.2265 15.523 14.7495C15.9508 15.285 16.0747 16.0972 15.8115 16.7335C15.786 16.7945 15.6265 16.9972 15.688 17.0495C15.8053 17.1485 16.1613 16.8462 16.2648 16.782C16.5715 16.5895 16.8785 16.4015 17.1623 16.1755C17.6243 15.8072 18.0972 15.5212 18.6695 16.1417C18.6035 15.7642 18.5075 11.1387 18.5322 10.4647C18.5483 10.0427 18.542 9.90925 18.6987 9.5065C18.8457 9.129 19.1435 8.82175 19.442 8.5585C19.8135 8.231 20.1847 7.90375 20.5537 7.574C21.227 6.973 21.809 6.3085 22.3125 5.559C22.5385 5.22325 22.8003 4.838 22.8365 4.423C22.8612 4.132 22.6988 3.63775 22.4325 3.47375ZM16.4498 17.058C16.102 17.3182 15.688 17.5425 15.274 17.6747C13.7065 18.1742 12.0525 17.5712 10.6295 16.9187C10.457 16.8395 10.28 16.8022 10.1277 16.886C9.95975 16.9795 10.0172 17.1797 10.0352 17.336C10.0627 17.5702 10.171 17.775 10.3383 17.9417C10.936 18.5352 11.614 19.0102 12.3915 19.3405C12.7515 19.4935 12.6363 20.132 12.6388 20.4332C12.6433 21.113 12.6588 21.7945 12.6792 22.4757C13.0527 22.508 15.4268 22.4482 16.2048 22.303C16.21 21.4175 16.2638 20.1415 16.2463 19.2565C16.2375 18.8195 16.361 18.8422 16.657 18.6495C17.0633 18.3842 17.365 18.1762 17.6233 17.9312C18.0433 17.5332 18.3405 17.1125 18.2932 16.501C18.2182 15.5215 16.7275 16.8492 16.4498 17.058ZM8.19975 8.0455C9.25275 8.0455 10.1062 7.19175 10.1062 6.13875C10.1062 5.08575 9.25275 4.232 8.19975 4.232C7.14625 4.232 6.29275 5.08575 6.29275 6.13875C6.29275 7.19175 7.14625 8.0455 8.19975 8.0455ZM14.585 6.75675C15.7233 6.75675 16.645 5.8345 16.645 4.6965C16.645 3.55875 15.56 2.51575 14.4223 2.51575C13.2845 2.51575 12.393 3.53025 12.5253 4.6965C12.6528 5.82725 13.4478 6.75675 14.585 6.75675ZM14.0035 17.3567C14.7833 17.298 15.419 16.7095 15.419 15.9112C15.419 15.113 14.7858 14.4657 14.0035 14.4657C13.2228 14.4657 12.558 14.7997 12.494 15.7687C12.4415 16.5655 13.0148 17.432 14.0035 17.3567ZM9.7735 16.7767C9.809 16.6345 9.96375 16.434 10.2413 16.4667C9.376 15.1492 9.03725 12.1535 9.37225 11.9457C9.70925 11.7365 11.6505 11.9912 12.5122 11.4137C12.8212 11.2065 12.9038 10.5867 12.7413 10.3007C12.5668 9.99325 12.229 9.978 11.9095 9.9535C11.4097 9.915 10.9158 9.837 10.4235 9.745C8.9145 9.463 7.44125 9.05375 6.191 8.1235C5.183 7.3735 4.62625 6.325 4.16 5.20575C3.89125 4.56075 3.64175 3.90675 3.2995 3.29525C3.1715 3.06625 2.96475 2.97975 2.70825 3.00925C2.455 3.0385 2.3245 3.20325 2.241 3.427C2.1525 3.664 2.154 3.911 2.169 4.1545C2.20025 4.682 2.27125 5.20725 2.38375 5.72375C2.5785 6.6205 2.894 7.48575 3.3105 8.30325C3.6345 8.9395 4.11725 9.501 4.33975 10.1902C5.5465 13.9222 5.1205 18.1777 4.9915 19.3362C4.938 19.8137 7.815 21.0775 8.398 21.3445C8.56825 21.4227 9.65 21.8127 9.6535 21.868C10.312 21.458 11.5953 20.2832 11.9905 19.599C11.488 19.2265 10.9462 18.9172 10.4545 18.52C9.644 17.8647 9.708 17.041 9.7735 16.7767Z" fill="#4E4E4E"/>
</svg>
