<svg width="20" height="20" viewBox="0 0 25 25" fill="none" xmlns="http://www.w3.org/2000/svg">
<path d="M14.75 1.25C13.3752 1.25 12.25 2.37521 12.25 3.75C12.25 4.71603 12.8098 5.55298 13.6172 5.96875L12.625 9.92969C12.2684 9.81653 11.8932 9.75 11.5 9.75C10.6321 9.75 9.83204 10.0486 9.19531 10.5469L5.33594 7.29687C5.59658 6.9297 5.75 6.48157 5.75 6C5.75 4.76328 4.73672 3.75 3.5 3.75C2.26328 3.75 1.25 4.76328 1.25 6C1.25 7.23672 2.26328 8.25 3.5 8.25C3.89028 8.25 4.25717 8.14575 4.57812 7.96875L8.49219 11.2656C8.02634 11.8905 7.75 12.6638 7.75 13.5C7.75 14.3517 8.04174 15.1348 8.52344 15.7656L5.98438 18.3125C5.4932 17.9613 4.89684 17.75 4.25 17.75C2.59907 17.75 1.25 19.0991 1.25 20.75C1.25 22.4009 2.59907 23.75 4.25 23.75C5.90093 23.75 7.25 22.4009 7.25 20.75C7.25 20.1032 7.0387 19.5068 6.6875 19.0156L9.22656 16.4765C9.85824 16.9605 10.646 17.25 11.5 17.25C12.7512 17.25 13.8572 16.6265 14.5391 15.6797L18.3047 17.4609C18.2699 17.6349 18.25 17.8162 18.25 18C18.25 19.5128 19.4871 20.75 21 20.75C22.5129 20.75 23.75 19.5128 23.75 18C23.75 16.4871 22.5129 15.25 21 15.25C20.0217 15.25 19.1596 15.7721 18.6719 16.5469L15.0078 14.8047C15.16 14.3976 15.25 13.959 15.25 13.5C15.25 13.1356 15.1915 12.7866 15.0938 12.4531L18.8125 9.97656C19.2258 10.4481 19.8281 10.75 20.5 10.75C21.7367 10.75 22.75 9.73672 22.75 8.5C22.75 7.26328 21.7367 6.25 20.5 6.25C19.2633 6.25 18.25 7.26328 18.25 8.5C18.25 8.70297 18.277 8.89849 18.3281 9.08594L14.6797 11.5234C14.39 11.0602 14.0035 10.6586 13.5469 10.3594L14.5781 6.24219C14.6344 6.24604 14.6928 6.24998 14.75 6.24998C16.1248 6.24998 17.25 5.12477 17.25 3.74998C17.2008 2.0852 15.9522 1.31982 14.75 1.25Z" fill="#4E4E4E"/>
</svg>
